<svg height="512" viewBox="0 0 64 64" width="512" xmlns="http://www.w3.org/2000/svg"><g id="social_distancing-people-safeguard-protection-protect" data-name="social distancing-people-safeguard-protection-protect"><path d="m61 36v11h-20v-11a4 4 0 0 1 4-4h12a4 4 0 0 1 4 4z" fill="#2488ff"/><path d="m61 36v11h-4v-11a4 4 0 0 0 -4-4h4a4 4 0 0 1 4 4z" fill="#005ece"/><path d="m59 24h-2l-3-2-5 2-1-2-3 2h-2a8 8 0 1 1 16 0z" fill="#ffd422"/><path d="m59 24h-2l-2.13-1.42a8.023 8.023 0 0 0 -2.21-4.24 8.122 8.122 0 0 0 -3.66-2.09 8.239 8.239 0 0 1 2-.25 7.989 7.989 0 0 1 8 8z" fill="#ebbf00"/><path d="m51 47h6v14h-6z" fill="#a78966"/><path d="m54 47h3v14h-3z" fill="#957856"/><path d="m57 24v2a6 6 0 0 1 -6 6 6.009 6.009 0 0 1 -6-6v-2l3-2 1 2 5-2z" fill="#ffc477"/><path d="m57 24v2a6 6 0 0 1 -6 6 5.8 5.8 0 0 1 -2-.35 5.981 5.981 0 0 0 4-5.65v-2l-1.5-1 2.5-1z" fill="#ffa733"/><path d="m45 47h6v14h-6z" fill="#a78966"/><circle cx="32" cy="54" fill="#ff3051" r="7"/><path d="m39 54a7 7 0 0 1 -7 7 6.908 6.908 0 0 1 -2-.29 7 7 0 0 0 0-13.42 6.908 6.908 0 0 1 2-.29 7 7 0 0 1 7 7z" fill="#cd2a00"/><path d="m7 47h-4v-11a4 4 0 0 1 4-4h12a4 4 0 0 1 4 4v11z" fill="#91dc5a"/><path d="m21 24h-2l-3-2-5 2-1-2-3 2h-2a8 8 0 1 1 16 0z" fill="#ffd422"/><path d="m13 47h6v14h-6z" fill="#a78966"/><path d="m19 24v2a6 6 0 0 1 -6 6 6.009 6.009 0 0 1 -6-6v-2l3-2 1 2 5-2z" fill="#ffc477"/><path d="m7 47h6v14h-6z" fill="#a78966"/><path d="m23 36v11h-4v-11a4 4 0 0 0 -4-4h4a4 4 0 0 1 4 4z" fill="#5eac24"/><path d="m21 24h-2l-2.13-1.42a8.023 8.023 0 0 0 -2.21-4.24 8.122 8.122 0 0 0 -3.66-2.09 8.239 8.239 0 0 1 2-.25 7.989 7.989 0 0 1 8 8z" fill="#ebbf00"/><path d="m16 47h3v14h-3z" fill="#957856"/><path d="m19 24v2a6 6 0 0 1 -6 6 5.8 5.8 0 0 1 -2-.35 5.981 5.981 0 0 0 4-5.65v-2l-1.5-1 2.5-1z" fill="#ffa733"/><path d="m57 31h-1.11a6.97 6.97 0 0 0 2.11-5v-1h1a1 1 0 0 0 1-1 9 9 0 0 0 -18 0 1 1 0 0 0 1 1h1v1a6.97 6.97 0 0 0 2.11 5h-1.11a5 5 0 0 0 -5 5v11a1 1 0 0 0 1 1h3v13a1 1 0 0 0 1 1h12a1 1 0 0 0 1-1v-13h3a1 1 0 0 0 1-1v-11a5 5 0 0 0 -5-5zm-12.93-8a7 7 0 0 1 13.86 0h-.63l-2.75-1.83a.975.975 0 0 0 -.92-.1l-4.15 1.66-.59-1.18a1.024 1.024 0 0 0 -.63-.52 1 1 0 0 0 -.81.14l-2.75 1.83zm1.93 3v-1.46l1.61-1.08.5.99a.981.981 0 0 0 .89.55.971.971 0 0 0 .37-.07l4.51-1.81 2.12 1.42v1.46a5 5 0 0 1 -10 0zm4 34h-4v-12h4zm6 0h-4v-12h4zm4-14h-2v-10h-2v10h-10v-10h-2v10h-2v-10a3.009 3.009 0 0 1 3-3h12a3.009 3.009 0 0 1 3 3z"/><path d="m19 31h-1.11a6.97 6.97 0 0 0 2.11-5v-1h1a1 1 0 0 0 1-1 9 9 0 0 0 -18 0 1 1 0 0 0 1 1h1v1a6.97 6.97 0 0 0 2.11 5h-1.11a5 5 0 0 0 -5 5v11a1 1 0 0 0 1 1h3v13a1 1 0 0 0 1 1h12a1 1 0 0 0 1-1v-13h3a1 1 0 0 0 1-1v-11a5 5 0 0 0 -5-5zm-12.93-8a7 7 0 0 1 13.86 0h-.63l-2.75-1.83a.975.975 0 0 0 -.92-.1l-4.15 1.66-.59-1.18a1.024 1.024 0 0 0 -.63-.52 1 1 0 0 0 -.81.14l-2.75 1.83zm1.93 3v-1.46l1.61-1.08.5.99a.981.981 0 0 0 .89.55.971.971 0 0 0 .37-.07l4.51-1.81 2.12 1.42v1.46a5 5 0 0 1 -10 0zm4 34h-4v-12h4zm6 0h-4v-12h4zm4-14h-2v-10h-2v10h-10v-10h-2v10h-2v-10a3.009 3.009 0 0 1 3-3h12a3.009 3.009 0 0 1 3 3z"/><path d="m12.293 11.707 1.414-1.414-2.293-2.293h41.172l-2.293 2.293 1.414 1.414 4-4a1 1 0 0 0 0-1.414l-4-4-1.414 1.414 2.293 2.293h-41.172l2.293-2.293-1.414-1.414-4 4a1 1 0 0 0 0 1.414z"/><path d="m34.293 50.293-2.293 2.293-2.293-2.293-1.414 1.414 2.293 2.293-2.293 2.293 1.414 1.414 2.293-2.293 2.293 2.293 1.414-1.414-2.293-2.293 2.293-2.293z"/><path d="m32 46a8 8 0 1 0 8 8 8.009 8.009 0 0 0 -8-8zm0 14a6 6 0 1 1 6-6 6.006 6.006 0 0 1 -6 6z"/></g></svg>