<svg id="Layer_1" enable-background="new 0 0 256 256" height="512" viewBox="0 0 256 256" width="512" xmlns="http://www.w3.org/2000/svg"><g><path d="m184.879 110.484-8.501-29.681h-96.756l-8.501 29.681s-12.623 38.703 1.913 60.479c.926 1.388 2.411 2.171 3.96 2.171h37.127 27.758 8.371 28.756c1.548 0 3.033-.783 3.96-2.171 14.535-21.776 1.913-60.479 1.913-60.479z" fill="#87828e"/><path d="m128 148.558c-25.605 0-46.554-20.949-46.554-46.554v-41.62c0-3.462 2.833-6.295 6.295-6.295h80.516c3.462 0 6.295 2.833 6.295 6.295v41.62c.001 25.605-20.948 46.554-46.552 46.554z" fill="#ffbb98"/><path d="m113 146.053h30v34.28h-30z" fill="#ffbb98"/><path d="m132.536 136.036h-9.072c-4.576 0-8.286-3.71-8.286-8.286v-10.928c0-7.081 5.741-12.822 12.822-12.822 7.081 0 12.822 5.741 12.822 12.822v10.928c0 4.576-3.71 8.286-8.286 8.286z" fill="#ff4a73"/><path d="m182.97 170.96c-.93 1.39-2.42 2.17-3.96 2.17h-15c1.54 0 3.03-.78 3.96-2.17 14.53-21.77 1.91-60.48 1.91-60.48l-8.5-29.68h15l8.5 29.68s12.62 38.71-1.91 60.48z" fill="#796e84"/><path d="m91.99 173.13h-15c-1.54 0-3.03-.78-3.96-2.17-14.53-21.77-1.91-60.48-1.91-60.48l8.5-29.68h15l-8.5 29.68s-12.62 38.71 1.91 60.48c.93 1.39 2.42 2.17 3.96 2.17z" fill="#a4a4a5"/><path d="m174.55 60.38v41.62c0 25.61-20.95 46.56-46.55 46.56-2.55 0-5.06-.21-7.5-.61 22.07-3.61 39.05-22.89 39.05-45.95v-41.62c0-3.46-2.83-6.29-6.29-6.29h15c3.46 0 6.29 2.83 6.29 6.29z" fill="#ffaa80"/><path d="m135.5 147.95c-2.44.4-4.95.61-7.5.61-25.6 0-46.55-20.95-46.55-46.56v-41.62c0-3.46 2.83-6.29 6.29-6.29h15c-3.46 0-6.29 2.83-6.29 6.29v41.62c0 23.06 16.98 42.34 39.05 45.95z" fill="#ffcaa6"/><path d="m134.5 135.8c-.63.16-1.29.24-1.96.24h-9.08c-4.57 0-8.28-3.71-8.28-8.29v-10.93c0-7.08 5.74-12.82 12.82-12.82 2.38 0 4.6.65 6.5 1.78-3.79 2.22-6.32 6.34-6.32 11.04v10.93c0 3.9 2.7 7.18 6.32 8.05z" fill="#f973a3"/><path d="m113 146.05h15v34.28h-15z" fill="#ffcaa6"/><path d="m138.333 5.667h-8.587-3.25-8.829c-26.512 0-48.004 21.492-48.004 48.004v22.125c0 2.748 2.223 4.981 4.971 5.004 40.648.333 48.405-19.037 52.417-35.521 3.955 16.512 11.072 35.302 54.251 35.451 2.773.01 5.036-2.23 5.036-5.003v-22.056c-.001-26.512-21.493-48.004-48.005-48.004z" fill="#87828e"/><path d="m186.34 53.67v22.06c0 2.77-2.27 5.01-5.04 5-4.56-.01-8.72-.24-12.51-.65 1.52-.86 2.55-2.49 2.55-4.35v-22.06c0-26.51-21.49-48-48.01-48h15c26.52 0 48.01 21.49 48.01 48z" fill="#796e84"/><path d="m84.66 53.67v22.13c0 1.88 1.05 3.52 2.59 4.38-3.81.44-8 .66-12.62.62-2.74-.02-4.97-2.26-4.97-5v-22.13c0-26.51 21.49-48 48.01-48h15c-26.52 0-48.01 21.49-48.01 48z" fill="#a4a4a5"/><path d="m203.76 239.36v.97c0 5.53-4.48 10-10 10h-131.52c-5.52 0-10-4.47-10-10v-.97c0-24.04 11.19-45.47 28.65-59.34 1.18-.94 2.38-1.84 3.61-2.7 12.31-8.65 27.3-13.73 43.49-13.73h.02c16.19 0 31.18 5.08 43.49 13.73 1.23.86 2.44 1.76 3.61 2.7 2.26 1.79 4.42 3.72 6.46 5.76 12.08 12.08 20.1 28.22 21.83 46.21.24 2.43.36 4.88.36 7.37z" fill="#ffe2e2"/><path d="m203.76 239.36v.97c0 5.53-4.48 10-10 10h-5.95l-2.91-2.11c2.35-1.83 3.86-4.68 3.86-7.89v-.97c0-2.49-.12-4.94-.36-7.37-.41-4.29-1.18-8.48-2.28-12.53-3.51-12.93-10.35-24.48-19.55-33.68-2.04-2.04-4.2-3.97-6.46-5.76-1.17-.94-2.38-1.84-3.61-2.7-10.39-7.3-22.68-12.06-36-13.36 2.46-.25 4.96-.37 7.49-.37h.02c16.19 0 31.18 5.08 43.49 13.73 1.23.86 2.44 1.76 3.61 2.7 2.26 1.79 4.42 3.72 6.46 5.76 12.08 12.08 20.1 28.22 21.83 46.21.24 2.43.36 4.88.36 7.37z" fill="#ffcfcf"/><path d="m135.5 163.96c-13.32 1.3-25.61 6.06-36 13.36-1.23.86-2.43 1.76-3.61 2.7-17.46 13.87-28.65 35.3-28.65 59.34v.97c0 5.53 4.48 10 10 10h-15c-5.52 0-10-4.47-10-10v-.97c0-24.04 11.19-45.47 28.65-59.34 1.18-.94 2.38-1.84 3.61-2.7 12.31-8.65 27.3-13.73 43.49-13.73h.02c2.53 0 5.03.12 7.49.37z" fill="#ffefee"/><path d="m136.13 184.1-66.24 66.23h-7.65c-5.52 0-10-4.47-10-10v-.97c0-1.86.07-3.7.21-5.53l66.7-66.71c4.69-4.68 12.29-4.68 16.97 0l.01.01c4.68 4.68 4.68 12.28 0 16.97z" fill="#ffe2e2"/><path d="m135.14 166.24c-.34.27-.67.56-.99.88l-14.45 14.46-65.15 65.15c-1.44-1.72-2.31-3.96-2.31-6.4v-.97c0-1.86.07-3.7.21-5.53l66.7-66.71c4.38-4.37 11.28-4.66 15.99-.88z" fill="#ffefee"/><path d="m136.13 184.1-12.52 12.51-16.97-16.97 12.51-12.52c2.8-2.8 6.64-3.92 10.27-3.38.16.03.32.05.47.08.07.01.15.03.23.05.16.03.32.07.48.11.4.1.79.22 1.17.36.13.05.26.1.38.15 1.06.42 2.07 1.01 2.99 1.75.34.27.67.57.98.88l.01.01c4.68 4.68 4.68 12.28 0 16.97z" fill="#ffbb98"/><path d="m135.14 166.24c-.34.27-.67.56-.99.88l-14.45 14.46-5.56 5.56-7.5-7.5 12.51-12.52c2.8-2.8 6.64-3.92 10.27-3.38.16.03.32.05.47.08.07.01.15.03.23.05.16.03.32.07.48.11.4.1.79.22 1.17.36.13.05.26.1.38.15 1.06.42 2.07 1.01 2.99 1.75z" fill="#ffcaa6"/><path d="m203.76 239.36v.97c0 5.53-4.48 10-10 10h-5.95l-2.91-2.11-50.22-36.39c-5.36-3.89-6.56-11.4-2.68-16.75l.01-.02c3.89-5.36 11.39-6.55 16.76-2.67l37.35 27.07 17.28 12.53c.24 2.43.36 4.88.36 7.37z" fill="#ffe2e2"/><path d="m203.76 239.36v.97c0 2.06-.62 3.97-1.69 5.56l-13.67-9.9-54.68-39.63c-.59-.43-1.21-.8-1.85-1.09.04-.06.07-.12.12-.17 0-.01 0-.01.01-.02l.01-.02c3.89-5.36 11.39-6.55 16.76-2.67l54.63 39.6c.24 2.43.36 4.88.36 7.37z" fill="#ffcfcf"/><path d="m163.1 202.78-7.07 9.75-7.02 9.69-14.33-10.39c-5.3-3.84-6.53-11.23-2.81-16.56.04-.06.07-.12.12-.17 0-.01 0-.01.01-.02l.01-.02c3.89-5.36 11.39-6.55 16.76-2.67z" fill="#ffbb98"/><path d="m163.1 202.78-7.07 9.75-22.31-16.17c-.59-.43-1.21-.8-1.85-1.09.04-.06.07-.12.12-.17 0-.01 0-.01.01-.02l.01-.02c3.89-5.36 11.39-6.55 16.76-2.67z" fill="#ffaa80"/><g fill="#5f266d"><path d="m151.46 30.09c6.69 3.26 11.71 9.24 13.78 16.39 1.49 5.114 9.156 2.873 7.69-2.22-2.7-9.32-9.25-17.11-17.96-21.36-4.768-2.324-8.256 4.877-3.51 7.19z"/><path d="m166.29 58.69v3.39c0 5.305 8 5.274 8 0v-3.39c0-5.281-8-5.294-8 0z"/><path d="m111.18 116.82v10.93c0 6.77 5.51 12.29 12.28 12.29h9.08c6.77 0 12.28-5.52 12.28-12.29v-10.93c0-22.238-33.64-22.223-33.64 0zm8 0c0-11.661 17.64-11.651 17.64 0v10.93c0 2.36-1.92 4.29-4.28 4.29h-9.08c-2.36 0-4.28-1.93-4.28-4.29z"/><path d="m143.75 100.13h14.5c5.285 0 5.293-8 0-8h-4.85l3.43-3.43c3.725-3.725-1.893-9.403-5.66-5.66l-10.25 10.26c-2.583 2.582-.667 6.83 2.83 6.83z"/><path d="m112.25 100.13c3.514 0 5.391-4.269 2.83-6.83l-10.25-10.26c-3.768-3.744-9.385 1.935-5.66 5.66l3.43 3.43h-4.85c-5.285 0-5.293 8 0 8z"/><path d="m51.696 133.955-20.268 4.426c-6.468 1.405-9.159-8.007-2.927-10.229l2.398-.855c4.98-1.775 2.298-9.314-2.686-7.535l-2.398.854c-13.995 4.988-10.432 25.887 4.486 25.887.936 0 1.886-.1 2.833-.307l20.268-4.426c5.185-1.131 3.446-8.948-1.706-7.815z"/><path d="m53.696 149.59-12.75 2.75c-5.122 1.105-3.54 8.943 1.688 7.82l12.75-2.75c5.166-1.114 3.485-8.935-1.688-7.82z"/><path d="m230.183 120.618-2.398-.855c-4.966-1.778-7.681 5.755-2.686 7.535l2.398.855c6.237 2.222 3.54 11.632-2.927 10.228l-20.268-4.426c-5.163-1.131-6.877 6.687-1.707 7.815l20.268 4.426c.948.207 1.896.307 2.833.307 14.92 0 18.483-20.898 4.487-25.885z"/><path d="m215.053 152.34-12.75-2.75c-5.176-1.111-6.854 6.706-1.688 7.82l12.75 2.75c5.244 1.122 6.797-6.718 1.688-7.82z"/><circle cx="128" cy="225.33" r="6.25"/><path d="m177.89 177.13h1.12c2.91 0 5.63-1.48 7.29-3.95 15.25-22.85 3.21-61.38 2.41-63.87l-7.04-24.59c4.819-.169 8.67-4.139 8.67-8.99v-22.06c0-28.67-23.33-52-52.01-52h-20.66c-28.68 0-52.01 23.33-52.01 52v22.13c0 4.82 3.85 8.8 8.65 8.99l-7.02 24.52c-.8 2.49-12.84 41.02 2.42 63.87 1.65 2.47 4.37 3.95 7.28 3.95h1.12c-18.369 14.71-29.87 36.772-29.87 63.2 0 7.72 6.28 14 14 14h131.52c7.009 0 14-5.25 14-14.97 0-24.658-11.444-47.588-29.87-62.23zm20 45.92-46.78-33.9c-3.46-2.5-7.6-3.42-11.54-2.87 4.31-4.82 5.19-11.65 2.63-17.28 26.979 5.358 49.194 26.266 55.69 54.05zm-60.86-14.46c-8.572-6.218.716-19.232 9.39-12.96l11.09 8.04-9.39 12.96zm-51.58-124.2c18.911-1.683 33.97-8.627 41.56-26.02 5.43 12.59 16.29 23.58 43.54 25.9v17.73c0 18.14-11.54 34.29-28.74 40.24-.03.01-.07.02-.11.04-8.81 3.03-18.58 3.03-27.39 0-.04-.02-.08-.03-.12-.04-17.2-5.95-28.74-22.1-28.74-40.24zm31.55 66.95c7.232 1.627 14.767 1.628 22 0v9c-7.239-1-14.775-1.001-22 0zm4.98 18.61c7.464-7.464 18.814 3.825 11.32 11.32l-9.69 9.68-11.31-11.31zm57.66-1.21c-.16.25-.39.39-.63.39h-13.15c-5.97-3.23-12.3-5.67-18.86-7.26v-13.05c18.71-7.61 31.19-25.66 31.54-45.93l2.49 8.69c.02.05.03.09.05.14.12.37 11.83 37.14-1.44 57.02zm-105.98-92.94v-22.13c0-24.26 19.74-44 44.01-44h20.66c24.27 0 44.01 19.74 44.01 44v22.06c0 .538-.446 1-1.02 1-37.785-.17-45.931-13.793-50.38-32.38-.979-4.099-6.783-4.077-7.78-.02-5.044 20.77-15.509 32.47-48.49 32.47-.56 0-1.01-.45-1.01-1zm3.33 93.33c-.24 0-.47-.14-.63-.39-13.27-19.88-1.56-56.65-1.44-57.02.02-.05.03-.09.05-.14l2.49-8.69c.35 20.27 12.83 38.32 31.54 45.93v13.05c-6.56 1.59-12.89 4.03-18.85 7.26zm34 .49-52.73 52.74c6.487-26.843 27.656-46.664 52.73-52.74zm-48.75 76.71c-3.31 0-6-2.69-6-6 0-1.245-.011-2.628.1-4.74l.01-.01 50.29-50.28 11.31 11.31-49.72 49.72zm17.31 0 46.32-46.31c-.74 5.63 1.55 11.49 6.46 15.05l43.14 31.26zm120.21-6c0 3.31-2.69 6-6 6h-4.65l-34.51-25.01 9.39-12.95 35.58 25.78c.156 2.246.19 3.473.19 6.18z"/></g></g></svg>