<svg id="Capa_1" enable-background="new 0 0 512 512" height="512" viewBox="0 0 512 512" width="512" xmlns="http://www.w3.org/2000/svg"><g><g><g><path d="m225.158 91.445h224.392v88.077h-224.392z" fill="#688d97"/><g><g><g><path d="m483.563 432.483v72.017h-292.42v-72.017c0-69.273 56.157-125.429 125.429-125.429h41.56c69.274-.001 125.431 56.156 125.431 125.429z" fill="#fb4a59"/><path d="m483.563 432.486v72.01h-33.885v-72.01c0-69.275-56.157-125.433-125.423-125.433h33.876c69.275.001 125.432 56.158 125.432 125.433z" fill="#f82f40"/><path d="m363.959 277.036v47.338c0 14.689-11.914 26.603-26.603 26.603-14.7 0-26.614-11.914-26.614-26.603v-47.338z" fill="#fdb0a0"/><path d="m363.959 277.036v35.693c-8.049 3.634-17.068 5.671-26.603 5.671s-18.565-2.037-26.614-5.671v-35.693z" fill="#f9a08f"/><g><g><g fill="#f9a08f"><circle cx="433.824" cy="182.369" r="30.472"/><circle cx="240.882" cy="182.369" r="30.472"/></g></g></g><path d="m425.207 142.314v58.536c0 48.447-38.747 88.584-87.194 88.954-48.826.35-88.524-39.107-88.524-87.854v-59.636c0-48.527 39.347-87.854 87.864-87.854 24.268 0 46.227 9.829 62.126 25.728 15.889 15.909 25.728 37.867 25.728 62.126z" fill="#fdb0a0"/><path d="m425.207 142.314v12.779c-7.049 2.31-14.549 3.53-22.268 3.53h-131.161c-7.719 0-15.219-1.23-22.288-3.54v-12.769c0-48.527 39.347-87.854 87.864-87.854 24.268 0 46.227 9.829 62.126 25.728 15.888 15.909 25.727 37.867 25.727 62.126z" fill="#f9a08f"/></g></g></g><g><path d="m300.621 7.5c-38.568 0-71.935 27.475-78.641 65.455-.506 2.866-.92 5.769-1.239 8.707-.928 8.546.292 17.191 3.563 25.14l.011.028c7.916 19.236 26.659 31.791 47.46 31.791h131.167c20.823 0 39.581-12.582 47.483-31.847 3.254-7.934 4.465-16.559 3.541-25.085-.32-2.947-.735-5.86-1.242-8.734-6.706-37.98-40.073-65.455-78.641-65.455z" fill="#3f5959"/><path d="m454.265 87.257c0 6.68-1.3 13.309-3.84 19.519-7.9 19.269-26.658 31.848-47.487 31.848h-31.258c20.828 0 39.587-12.579 47.487-31.848 2.54-6.21 3.84-12.839 3.84-19.519 0-1.85-.1-3.71-.3-5.569-.32-2.94-.73-5.86-1.24-8.729-6.71-37.988-40.077-65.455-78.644-65.455h31.258c38.567 0 71.935 27.468 78.644 65.455.51 2.87.92 5.79 1.24 8.729.2 1.86.3 3.72.3 5.569z" fill="#384848"/></g></g><g><path d="m330.738 186.467c-14.262 5.195-47.307 20.436-55.863 52.4v27.211c0 9.037 5.178 17.265 13.314 21.197 10.638 5.14 27.368 10.857 49.164 10.857s38.526-5.717 49.164-10.857c8.137-3.932 13.314-12.16 13.314-21.196v-27.211c-8.556-31.964-41.601-47.205-55.863-52.4-4.274-1.558-8.955-1.558-13.23-.001z" fill="#eff5f6"/><path d="m399.833 238.872v27.21c0 9.03-5.18 17.26-13.32 21.19-10.01 4.84-25.43 10.19-45.39 10.8 7.52-2.01 13.81-4.53 18.78-6.93 8.14-3.93 13.31-12.16 13.31-21.2v-27.21c-8.13-30.4-38.42-45.67-53.64-51.56 4.29-2.06 8.14-3.61 11.16-4.71 4.28-1.55 8.96-1.55 13.24 0 14.26 5.2 47.3 20.44 55.86 52.41z" fill="#cbe5e7"/></g><path d="m349.237 272.883h-23.767c-2.761 0-5-2.239-5-5v-23.766c0-2.761 2.239-5 5-5h23.766c2.761 0 5 2.239 5 5v23.766c.001 2.762-2.238 5-4.999 5z" fill="#8dcafc"/></g><g><g><g><g><g><circle cx="163.524" cy="183.604" fill="#fcb3a9" r="16.118"/><path d="m174.919 194.999c-6.294 6.294-16.5 6.298-22.794.004-1.752-1.752-3.015-3.808-3.791-6.002 5.672 2.01 12.254.742 16.792-3.795s5.806-11.119 3.795-16.792c2.194.776 4.25 2.039 6.002 3.791 6.294 6.294 6.29 16.5-.004 22.794z" fill="#fc9085"/></g></g><g><g><circle cx="120.944" cy="119.931" fill="#fcb3a9" r="16.118"/><path d="m132.339 131.326c-6.294 6.294-16.5 6.298-22.794.004-1.752-1.752-3.015-3.808-3.791-6.002 5.672 2.01 12.254.742 16.792-3.795 4.538-4.538 5.806-11.119 3.795-16.792 2.194.776 4.25 2.039 6.002 3.791 6.294 6.294 6.29 16.5-.004 22.794z" fill="#fc9085"/></g></g><g><circle cx="97.448" cy="181.761" fill="#f82f40" r="57.146"/><path d="m137.86 222.172c-22.314 22.314-58.506 22.314-80.82 0-3.213-3.213-5.961-6.713-8.252-10.426 22.034 13.598 51.287 10.843 70.388-8.258s21.856-48.354 8.258-70.388c3.712 2.29 7.212 5.039 10.426 8.252 22.314 22.314 22.314 58.506 0 80.82z" fill="#e22334"/></g><g><g><circle cx="81.01" cy="235.848" fill="#fcb3a9" r="16.118"/><path d="m92.406 247.243c-6.294 6.294-16.5 6.298-22.794.004-1.752-1.752-3.015-3.808-3.791-6.002 5.672 2.01 12.254.742 16.792-3.795s5.806-11.119 3.795-16.792c2.194.776 4.25 2.039 6.002 3.791 6.294 6.295 6.29 16.501-.004 22.794z" fill="#fc9085"/></g></g><g><g><circle cx="115.105" cy="188.066" fill="#fcb3a9" r="16.118"/><path d="m126.501 199.462c-6.294 6.294-16.5 6.298-22.794.004-1.752-1.752-3.015-3.808-3.791-6.002 5.672 2.01 12.254.742 16.792-3.795 4.538-4.538 5.806-11.119 3.795-16.792 2.194.776 4.25 2.039 6.002 3.791 6.294 6.294 6.29 16.5-.004 22.794z" fill="#fc9085"/></g></g><g><g><circle cx="44.556" cy="180.024" fill="#fcb3a9" r="16.118"/><path d="m55.951 191.419c-6.294 6.294-16.5 6.298-22.794.004-1.752-1.752-3.015-3.808-3.791-6.002 5.672 2.01 12.254.742 16.792-3.795s5.806-11.119 3.795-16.792c2.194.776 4.25 2.039 6.002 3.791 6.294 6.294 6.29 16.5-.004 22.794z" fill="#fc9085"/></g></g></g></g><g><path d="m133.395 450.255h-23.973c-5.523 0-10-4.477-10-10v-23.973c0-5.523 4.477-10 10-10h23.973c5.523 0 10 4.477 10 10v23.973c0 5.522-4.477 10-10 10z" fill="#fb4a59"/><path d="m143.392 416.278v23.98c0 5.52-4.47 10-10 10h-21.98c5.52 0 10-4.48 10-10v-23.98c0-5.52-4.48-10-10-10h21.98c5.53 0 10 4.48 10 10z" fill="#f82f40"/><g><path d="m426.445 411.732c-4.143 0-7.5 3.357-7.5 7.5v85.268c0 4.143 3.357 7.5 7.5 7.5s7.5-3.357 7.5-7.5v-85.268c0-4.142-3.358-7.5-7.5-7.5z"/><path d="m248.261 411.732c-4.143 0-7.5 3.357-7.5 7.5v85.268c0 4.143 3.357 7.5 7.5 7.5s7.5-3.357 7.5-7.5v-85.268c0-4.142-3.357-7.5-7.5-7.5z"/><path d="m463.044 350.85c-2.545-3.268-7.259-3.853-10.525-1.307-3.268 2.546-3.853 7.258-1.307 10.525 16.258 20.865 24.851 45.905 24.851 72.414v72.018c0 4.143 3.357 7.5 7.5 7.5s7.5-3.357 7.5-7.5v-72.018c0-29.879-9.688-58.108-28.019-81.632z"/><path d="m437.424 325.785c-18.845-14.026-40.927-22.73-64.168-25.368 6.57-1.979 12.124-4.264 16.523-6.391 10.602-5.121 17.467-15.998 17.544-27.749 11.95-13.081 19.963-28.989 23.427-46.074 1.022.083 2.046.137 3.069.137 20.942 0 37.979-17.033 37.979-37.97 0-12.194-5.786-23.057-14.751-30.009v-42.011c.104-.243.214-.482.314-.728 2.507-6.108 3.953-12.606 4.301-19.313.214-4.137-2.966-7.663-7.103-7.878-4.093-.214-7.663 2.965-7.878 7.103-.26 5.013-1.335 9.856-3.198 14.396-6.774 16.518-22.688 27.191-40.543 27.191h-73.88c-4.143 0-7.5 3.357-7.5 7.5s3.357 7.5 7.5 7.5h73.88c5.07 0 10.022-.648 14.768-1.869v56.598c0 14.139-3.614 27.846-10.379 39.96v-1.942c0-.655-.086-1.307-.255-1.939-9.492-35.46-45.5-52.03-60.54-57.508-5.922-2.158-12.444-2.159-18.366 0h.001c-15.041 5.478-51.051 22.048-60.542 57.508-.169.633-.255 1.284-.255 1.939v2.615c-6.769-11.952-10.384-25.513-10.384-39.532v-57.704c4.751 1.225 9.709 1.875 14.785 1.875h23.463c4.143 0 7.5-3.357 7.5-7.5s-3.357-7.5-7.5-7.5h-23.463c-17.832 0-33.738-10.655-40.49-27.061-.015-.038-.029-.075-.045-.112-2.782-6.761-3.835-14.188-3.044-21.476.298-2.738.691-5.502 1.17-8.214 6.064-34.337 36.032-59.259 71.258-59.259h73.462c29.566 0 55.864 17.513 66.998 44.614 1.574 3.832 5.959 5.662 9.787 4.088 3.832-1.574 5.662-5.956 4.088-9.787-13.455-32.752-45.2-53.915-80.874-53.915h-73.462c-42.518 0-78.697 30.134-86.026 71.651-.536 3.038-.978 6.134-1.311 9.201-1.061 9.772.352 19.733 4.051 28.72.015.037.029.075.045.112.089.216.186.426.277.64v42.038c-8.962 6.952-14.747 17.814-14.747 30.008 0 20.937 17.033 37.97 37.97 37.97.959 0 1.916-.049 2.87-.121 3.359 17.3 11.467 33.375 23.648 46.513.25 11.574 7.064 22.238 17.528 27.295 4.396 2.124 9.941 4.405 16.5 6.383-27.955 3.174-53.2 15.023-73.083 32.719l-59.515-59.516c-1.407-1.406-3.314-2.196-5.304-2.196h-134.157c-4.143 0-7.5 3.357-7.5 7.5s3.357 7.5 7.5 7.5h131.051l57.294 57.296c-21.208 23.623-34.069 54.814-34.069 88.769v72.018c0 4.143 3.357 7.5 7.5 7.5s7.5-3.357 7.5-7.5v-72.018c0-29.836 11.196-57.265 29.689-78.148l2.932 2.932c1.465 1.464 3.384 2.196 5.304 2.196 1.919 0 3.839-.732 5.304-2.196 2.929-2.93 2.929-7.678 0-10.607l-2.906-2.906c17.561-15.397 39.743-25.692 64.275-28.453v9.074c0 18.805 15.304 34.104 34.114 34.104 18.805 0 34.104-15.299 34.104-34.104v-9.065c20.648 2.325 40.268 10.05 57.011 22.511 1.345 1.001 2.915 1.483 4.472 1.483 2.289 0 4.551-1.044 6.022-3.022 2.472-3.324 1.784-8.022-1.54-10.496zm-3.603-120.445c-.405 0-.81-.011-1.214-.032.067-1.481.104-2.968.104-4.458v-41.398c.37-.018.74-.052 1.11-.052 12.671 0 22.979 10.304 22.979 22.97s-10.308 22.97-22.979 22.97zm8.228-74.06v14.028c-2.651-.588-5.403-.908-8.229-.908-.37 0-.74.015-1.11.026v-2.116c0-1.413-.041-2.805-.102-4.18 3.365-1.961 6.528-4.255 9.441-6.85zm-209.391-.012c2.912 2.595 6.073 4.888 9.435 6.85-.061 1.381-.102 2.778-.102 4.193v2.116c-.37-.011-.74-.026-1.11-.026-2.824 0-5.573.319-8.223.907zm8.222 74.072c-12.666 0-22.97-10.304-22.97-22.97s10.304-22.97 22.97-22.97c.37 0 .74.033 1.11.052v42.498c0 1.123.04 2.241.079 3.359-.395.021-.791.031-1.189.031zm41.495 60.737v-26.189c8.071-28.032 38.232-41.749 50.93-46.374h.001c2.612-.95 5.487-.95 8.098 0 12.696 4.625 42.857 18.342 50.929 46.374v26.189c0 6.11-3.563 11.779-9.078 14.443-9.544 4.612-25.255 10.11-45.9 10.11-20.643 0-36.355-5.498-45.9-10.109-5.517-2.664-9.08-8.334-9.08-14.444zm54.98 77.4c-10.54 0-19.114-8.569-19.114-19.104v-20.185c5.882.894 12.255 1.443 19.112 1.443 6.855 0 13.226-.549 19.105-1.442v20.184c0 10.534-8.569 19.104-19.103 19.104z"/><path d="m378.67 187.534c4.102 0 7.45-3.301 7.497-7.413.049-4.142-3.27-7.538-7.412-7.586l-.084-.001c-.029-.001-.059-.001-.089-.001-4.101 0-7.408 3.301-7.455 7.413-.049 4.142 3.312 7.539 7.454 7.587.03.001.059.001.089.001z"/><path d="m296.121 172.534h-.083c-4.143 0-7.459 3.357-7.459 7.5s3.399 7.5 7.542 7.5 7.5-3.357 7.5-7.5-3.358-7.5-7.5-7.5z"/><path d="m361.737 267.883v-23.766c0-6.893-5.607-12.5-12.5-12.5h-23.767c-6.893 0-12.5 5.607-12.5 12.5v23.766c0 6.893 5.607 12.5 12.5 12.5h23.767c6.892 0 12.5-5.608 12.5-12.5zm-15-2.5h-18.767v-18.766h18.767z"/><path d="m115.105 211.673c6.047 0 12.097-2.302 16.7-6.905h.001c9.208-9.209 9.208-24.193-.001-33.402-9.209-9.207-24.191-9.207-33.4 0-9.208 9.209-9.208 24.193 0 33.402 4.604 4.604 10.651 6.905 16.7 6.905zm-6.093-29.7c1.68-1.681 3.886-2.521 6.093-2.521s4.414.84 6.094 2.521c3.36 3.36 3.36 8.827.001 12.188-3.36 3.36-8.827 3.36-12.188 0s-3.36-8.828 0-12.188z"/><path d="m36.062 202.068c3.151 9.523 8.54 18.27 15.675 25.406 1.847 1.846 3.817 3.58 5.871 5.193-.14 1.046-.217 2.108-.217 3.182 0 6.309 2.457 12.239 6.918 16.7 4.462 4.461 10.393 6.918 16.701 6.918s12.239-2.457 16.699-6.918l.001-.001c1.875-1.874 3.39-4.01 4.523-6.323 15.462-1.131 29.891-7.713 40.932-18.753 6.224-6.227 10.903-13.42 14.052-21.099 2.071.577 4.193.866 6.308.866 6.103 0 12.143-2.371 16.698-6.935 9.207-9.208 9.207-24.189.005-33.392-5.818-5.831-14.008-8.096-21.735-6.39-3.095-8.947-8.203-17.345-15.332-24.477-.923-.922-1.873-1.801-2.837-2.656 6.385-9.201 5.505-21.962-2.682-30.163-9.209-9.207-24.188-9.205-33.397 0-3.769 3.77-6.107 8.713-6.736 13.925-16.575-.015-33.155 6.283-45.773 18.895-6.187 6.188-10.939 13.389-14.185 21.412-3.621 1.119-6.94 3.108-9.696 5.865-4.462 4.461-6.919 10.392-6.919 16.7 0 6.31 2.457 12.24 6.918 16.7 2.374 2.375 5.167 4.174 8.208 5.345zm51.042 39.873c-1.628 1.629-3.792 2.525-6.094 2.525s-4.466-.897-6.095-2.525c-1.628-1.627-2.524-3.791-2.524-6.093s.897-4.466 2.525-6.094 3.792-2.525 6.094-2.525 4.466.896 6.093 2.525c1.628 1.628 2.525 3.792 2.525 6.094s-.896 4.466-2.524 6.093zm82.513-64.427c3.359 3.358 3.359 8.824-.005 12.188-2.232 2.237-5.438 3.028-8.363 2.219.874-5.537 1.036-11.163.472-16.733 2.808-.61 5.778.201 7.896 2.326zm-54.763-63.68c3.358-3.36 8.824-3.359 12.179-.005 2.981 2.986 3.311 7.629 1.003 10.986-4.983-2.672-10.243-4.646-15.639-5.918.226-1.898 1.064-3.671 2.457-5.063zm17.702 32.817c19.35 19.359 19.35 50.857.002 70.215-7.762 7.761-17.706 12.644-28.441 14.083-.932-4.439-3.125-8.518-6.407-11.8-4.461-4.462-10.392-6.919-16.7-6.919-6.2 0-12.031 2.378-16.466 6.694-.752-.667-1.491-1.348-2.2-2.057-4.207-4.207-7.607-9.147-10.062-14.516 3.34-1.153 6.402-3.054 8.973-5.626l.001-.001c4.461-4.46 6.918-10.392 6.918-16.7s-2.457-12.239-6.918-16.699c-2.198-2.198-4.754-3.907-7.535-5.078 2.276-4.235 5.151-8.122 8.62-11.592 19.36-19.35 50.859-19.35 70.215-.004zm-94.094 27.279c1.627-1.628 3.791-2.524 6.093-2.524 2.303 0 4.467.896 6.095 2.525 1.628 1.627 2.524 3.791 2.524 6.093 0 2.303-.896 4.467-2.524 6.094l-.001.001c-1.627 1.628-3.791 2.524-6.094 2.524-2.302 0-4.466-.896-6.094-2.525-1.628-1.627-2.524-3.791-2.524-6.094 0-2.302.896-4.466 2.525-6.094z"/><path d="m143.707 307.939h-94.86c-4.143 0-7.5 3.357-7.5 7.5s3.357 7.5 7.5 7.5h94.859c4.143 0 7.5-3.357 7.5-7.5s-3.357-7.5-7.499-7.5z"/><path d="m143.707 334.273h-54.041c-4.143 0-7.5 3.357-7.5 7.5s3.357 7.5 7.5 7.5h54.041c4.143 0 7.5-3.357 7.5-7.5s-3.358-7.5-7.5-7.5z"/><path d="m143.707 360.606h-54.041c-4.143 0-7.5 3.357-7.5 7.5s3.357 7.5 7.5 7.5h54.041c4.143 0 7.5-3.357 7.5-7.5s-3.358-7.5-7.5-7.5z"/><path d="m133.395 398.781h-23.974c-9.649 0-17.5 7.851-17.5 17.5v23.974c0 9.649 7.851 17.5 17.5 17.5h23.974c9.649 0 17.5-7.851 17.5-17.5v-23.974c0-9.649-7.851-17.5-17.5-17.5zm2.5 41.474c0 1.379-1.121 2.5-2.5 2.5h-23.974c-1.379 0-2.5-1.121-2.5-2.5v-23.974c0-1.379 1.121-2.5 2.5-2.5h23.974c1.379 0 2.5 1.121 2.5 2.5z"/></g></g></g></g></svg>