<svg id="_x33_0" enable-background="new 0 0 64 64" height="512" viewBox="0 0 64 64" width="512" xmlns="http://www.w3.org/2000/svg"><g><g><g><path d="m51.98 46.69c-.13-5.24-2.32-10.21-6.07-13.86-.23.11-.49.17-.76.17h-2.76c-1.47 0-2.94.12-4.39.35l-6 1.65c-3.3-1.32-6.83-2-10.39-2h-1.37-2.24l-2.73 3.25c-1.91 2.92-3.04 6.31-3.23 9.84l-.04 9.81v6.1h15 5 20v-14.78c0-.05 0-.1 0-.15z" fill="#b4dd7f"/></g><g><path d="m26 42v-1c0-1.66 1.34-3 3-3h3v.65 7.35 2h-7c-.83 0-1.58-.34-2.12-.88s-.88-1.29-.88-2.12c0-1.66 1.34-3 3-3z" fill="#fcd770"/></g><g><path d="m20.24 33c.47.53.76 1.23.76 2 0 1.66-1.34 3-3 3-1.21 0-2.26-.72-2.73-1.75.81-1.23 1.75-2.38 2.82-3.42.23.11.49.17.76.17z" fill="#fcd770"/></g><g><path d="m13 46c2.76 0 5 2.24 5 5s-2.24 5-5 5c-.34 0-.68-.03-1-.1v-8.68c0-.38.01-.75.04-1.13.31-.06.63-.09.96-.09z" fill="#fcd770"/></g><g><circle cx="22" cy="56" fill="#fcd770" r="2"/></g><g><path d="m32 57v5h-5c0-2.76 2.24-5 5-5z" fill="#fcd770"/></g><g><circle cx="43" cy="56" fill="#fcd770" r="2"/></g><g><path d="m32 46c2.21 0 4 1.79 4 4s-1.79 4-4 4v-6z" fill="#fcd770"/></g><g><path d="m51.99 46.82c.01.08.01.17.01.25-.04 1.63-1.36 2.93-3 2.93-1.66 0-3-1.34-3-3s1.34-3 3-3c1.56 0 2.83 1.18 2.98 2.69.01.05.01.09.01.13z" fill="#fcd770"/></g><g><path d="m32 35c1.93-.77 3.95-1.33 6-1.65.62.71 1 1.64 1 2.65 0 2.21-1.79 4-4 4-1.19 0-2.27-.52-3-1.35v-.65z" fill="#fcd770"/></g><g><circle cx="45" cy="39" fill="#fcd770" r="2"/></g><g><path d="m27.91 29.02c1.47 1.5 2.72 3.23 3.68 5.15l.41.83c-3.3-1.32-6.83-2-10.39-2h-1.37-1.39c-.27 0-.53-.06-.76-.17-.64-.29-1.09-.93-1.09-1.68 0-.71.4-1.35 1.02-1.66l.98-.49s-.28-.14-.63-.32c-.68-.33-1.15-.96-1.31-1.68.87-.02 1.64-.39 2.17-1h5.29c.85 1.27 2.02 2.32 3.39 3.01z" fill="#a0d468"/></g><g><path d="m46.97 26.03c.02.13.03.25.03.38v.05c0 .95-.53 1.81-1.37 2.22-.35.18-.63.32-.63.32l.98.49c.62.31 1.02.95 1.02 1.66 0 .75-.45 1.39-1.09 1.68-.23.11-.49.17-.76.17h-2.76c-1.47 0-2.94.12-4.39.35-2.05.32-4.07.88-6 1.65l.41-.83c.96-1.92 2.21-3.65 3.68-5.15l2.27-1.66c.28-.28.55-.59.79-.91l.01.01c1.34-.92 2.8-1.68 4.35-2.25.32-.14.67-.21 1.02-.21h.06c1.2 0 2.2.88 2.38 2.03z" fill="#a0d468"/></g><g><path d="m18.2 10.61c-.13-.39-.2-.8-.2-1.21 0-.9.32-1.78.9-2.47l.92-1.11 1.48-1.78c1.08-1.29 2.67-2.04 4.36-2.04.88 0 1.75.21 2.54.6l2.8 1.4 2.63-1.32c.9-.45 1.89-.68 2.9-.68.96 0 1.89.3 2.66.85.8.57 1.88 1.34 2.89 2.07.57.4 1.11.79 1.57 1.12.85.6 1.35 1.58 1.35 2.63v.04c0 .83-.33 1.62-.91 2.21l-1.09 1.08s.67.17 1.46.37c1.29.32 2.24 1.36 2.48 2.63.04.2.06.41.06.62v.05c0 .85-.34 1.67-.94 2.27l-1.06 1.06s.67.17 1.46.37c1.49.37 2.54 1.71 2.54 3.25v.05c0 .85-.34 1.67-.94 2.27l-1.09 1.09c-.18-1.15-1.18-2.03-2.38-2.03h-.06c-.35 0-.7.07-1.02.21-1.55.57-3.01 1.33-4.35 2.25l-.01-.01c1.16-1.51 1.85-3.4 1.85-5.45v-3.17c0-1.81-.72-3.55-2-4.83v-4c0-.55-.45-1-1-1h-12c-.55 0-1 .45-1 1v4c-1.28 1.28-2 3.02-2 4.83v3.17c0 .34.02.67.05 1h-3.82c-.54-.62-1.34-1-2.23-1l-1.43-2.85c-.37-.76-.57-1.59-.57-2.43 0-1.71.81-3.32 2.17-4.35l1.02-.76z" fill="#656d78"/></g><g><path d="m39 9v4c0 .55-.45 1-1 1h-12c-.55 0-1-.45-1-1v-4c0-.55.45-1 1-1h12c.55 0 1 .45 1 1z" fill="#e6e9ed"/></g><g><path d="m36.09 29.02c-1.47 1.5-2.72 3.23-3.68 5.15l-.41.83-.41-.83c-.96-1.92-2.21-3.65-3.68-5.15v-.01c1.23.63 2.62.99 4.09.99s2.86-.36 4.09-.98z" fill="#f0d0b4"/></g><g><path d="m32 22h-8.95c-.03-.33-.05-.66-.05-1v-3.17c0-1.81.72-3.55 2-4.83 0 .55.45 1 1 1h12c.55 0 1-.45 1-1 1.28 1.28 2 3.02 2 4.83v3.17c0 2.05-.69 3.94-1.85 5.45-.24.32-.51.63-.79.91l-2.27 1.66c-1.23.62-2.62.98-4.09.98s-2.86-.36-4.09-.99c-1.37-.69-2.54-1.74-3.39-3.01h7.48c1.1 0 2-.9 2-2s-.9-2-2-2z" fill="#f0d0b4"/></g><g><path d="m32 22c1.1 0 2 .9 2 2s-.9 2-2 2h-7.48-5.29c-.53.61-1.3.98-2.17 1-.19.01-.38-.01-.58-.04-1.21-.2-2.21-1.19-2.43-2.39-.35-1.91 1.1-3.57 2.95-3.57.89 0 1.69.38 2.23 1h3.82z" fill="#e6e9ed"/></g></g><g><path d="m35.5 16.197h2v3.606h-2z" transform="matrix(.555 -.832 .832 .555 1.277 38.385)"/><path d="m25.697 17h3.606v2h-3.606z" transform="matrix(.832 -.555 .555 .832 -5.366 18.277)"/><path d="m52.977 46.775c-.111-5.133-2.134-10.093-5.616-13.852.394-.489.639-1.102.639-1.777 0-.867-.385-1.665-1.034-2.2.654-.645 1.034-1.541 1.034-2.531l.767-.767c.795-.794 1.233-1.852 1.233-3.027 0-1.92-1.245-3.597-3.058-4.159.605-.682.951-1.537 1.026-2.476 1.676-.073 3.169-1.026 3.926-2.539l-1.789-.895c-.446.893-1.343 1.448-2.341 1.448h-.088c-.478-1.192-1.459-2.142-2.731-2.538.682-.758 1.055-1.731 1.055-2.792 0-1.368-.66-2.656-1.767-3.446l-.608-.435.668-.668c.713-.713 1.699-1.121 2.707-1.121v-2c-1.534 0-3.036.622-4.121 1.707l-.904.904-2.2-1.572c-1.89-1.35-4.507-1.291-6.591-.25l-2.184 1.093-2.354-1.177c-.922-.461-1.956-.705-2.987-.705-1.988 0-3.858.876-5.13 2.402l-.795.955c-1.041-.866-2.374-1.357-3.734-1.357v2c.894 0 1.759.336 2.443.905l-.316.38c-.727.874-1.127 1.98-1.127 3.114 0 .267.036.53.079.792l-.505.379c-1.612 1.209-2.574 3.133-2.574 5.147 0 .993.234 1.988.679 2.878l.852 1.703c-.613.243-1.17.618-1.604 1.138-.762.914-1.075 2.12-.858 3.31.294 1.619 1.632 2.934 3.251 3.197.006.001.012.001.019.002.174.373.405.714.696 1.001-.65.534-1.035 1.332-1.035 2.2 0 .675.245 1.288.639 1.778-3.583 3.867-5.639 9.005-5.639 14.296v15.78h42v-15.78c0-.049-.007-.097-.007-.146 0-.025.007-.049.007-.074 0-.077-.018-.149-.023-.225zm-1.984.299c-.04 1.068-.916 1.926-1.993 1.926-1.103 0-2-.897-2-2s.897-2 2-2c1.026 0 1.864.78 1.977 1.776.003.099.015.198.016.298zm-12.993-11.074c0 1.654-1.346 3-3 3-.747 0-1.452-.292-2-.787v-2.519c1.488-.553 3.01-.974 4.559-1.256.286.468.441 1.007.441 1.562zm-9 7v-2h-2c0-1.103.897-2 2-2h2v8h-6c-1.103 0-2-.897-2-2s.897-2 2-2zm-9-8c0 1.103-.897 2-2 2-.599 0-1.154-.273-1.529-.718.578-.826 1.229-1.6 1.936-2.327.147.023.294.045.447.045h.874c.175.302.272.645.272 1zm-1.146-3c-.47 0-.854-.384-.854-.854 0-.325.181-.618.473-.764l2.763-1.382-2.422-1.211c-.075-.038-.142-.086-.209-.135.375-.165.73-.376 1.04-.654h4.377c.888 1.179 1.996 2.144 3.264 2.822 1.001 1.034 1.88 2.17 2.625 3.394-2.687-.805-5.467-1.216-8.296-1.216zm14.146-10.816v-2.184h-2v2h-7v-3.172c0-1.115.332-2.212.929-3.145.31.198.676.317 1.071.317h12c.395 0 .761-.119 1.071-.317.597.934.929 2.03.929 3.145v3.172c0 4.411-3.589 8-8 8-1.973 0-3.841-.727-5.285-2h5.285c1.654 0 3-1.346 3-3 0-1.302-.839-2.402-2-2.816zm-7-8.184v-4h12l.002 4zm6 19.85c-.37-.661-.763-1.308-1.201-1.925.396.048.797.075 1.201.075.408 0 .809-.032 1.204-.08-.439.619-.833 1.267-1.204 1.93zm-1 28.15h-2.858c.364-1.399 1.459-2.495 2.858-2.858zm2-13.816c1.161.414 2 1.514 2 2.816s-.839 2.402-2 2.816zm1.088-13.968c.748-1.229 1.631-2.37 2.636-3.406 1.197-.644 2.244-1.528 3.087-2.583 1.26-.849 2.624-1.551 4.098-2.1.196-.084.404-.127.676-.127.78 0 1.415.635 1.415 1.463 0 .567-.313 1.075-.816 1.327l-2.42 1.21 2.764 1.382c.291.145.472.438.472.764 0 .47-.384.854-.854.854h-2.761c-2.829 0-5.609.411-8.297 1.216zm-16.315-21.046.065-.049c.172.256.367.498.587.717l.868.868 1.414-1.414-.868-.868c-.533-.532-.839-1.271-.839-2.025 0-.668.236-1.32.664-1.834l2.402-2.883c.891-1.069 2.201-1.682 3.593-1.682.723 0 1.446.171 2.093.494l3.248 1.624 3.079-1.54c1.431-.714 3.239-.837 4.533.088l4.459 3.185c.581.416.929 1.095.929 1.856 0 .567-.221 1.101-.622 1.502l-2.334 2.332 3.176.794c1.048.263 1.78 1.202 1.78 2.337 0 .589-.229 1.144-.646 1.561l-2.309 2.309 3.174.794c1.049.262 1.781 1.201 1.781 2.336 0 .59-.229 1.145-.647 1.563l-.091.091c-.632-.801-1.609-1.326-2.734-1.326-.488 0-.962.098-1.362.271-.548.204-1.084.438-1.613.686.29-.935.447-1.928.447-2.957v-3.172c0-1.915-.729-3.786-2-5.211v-3.617c0-1.103-.897-2-2-2h-12c-1.103 0-2 .897-2 2v3.617c-1.271 1.425-2 3.297-2 5.211v3.172h-2.354c-.558-.499-1.252-.82-1.998-.941l-1.18-2.357c-.306-.614-.468-1.301-.468-1.985 0-1.388.663-2.714 1.773-3.547zm-2.738 12.219c-.111-.614.04-1.207.428-1.671.381-.456.94-.718 1.537-.718.575 0 1.112.239 1.475.656l.298.344h13.227c.552 0 1 .448 1 1s-.448 1-1 1h-13.226l-.299.344c-.442.507-1.123.743-1.833.626-.788-.128-1.463-.793-1.607-1.581zm-2.035 22.831c0-.073.01-.145.011-.219 2.201.006 3.989 1.797 3.989 3.999 0 2.206-1.794 4-4 4zm0 9.78c3.309 0 6-2.691 6-6 0-3.26-2.614-5.915-5.856-5.993.291-2.454 1.051-4.832 2.237-6.986.715.618 1.64.979 2.619.979 2.206 0 4-1.794 4-4 0-.34-.058-.671-.141-.994 3.136.028 6.206.597 9.141 1.688v1.306h-2c-2.206 0-4 1.794-4 4-2.206 0-4 1.794-4 4s1.794 4 4 4h6v7.09c-2.507.423-4.486 2.403-4.91 4.91h-13.09zm20 4v-6.101c2.279-.465 4-2.484 4-4.899s-1.721-4.434-4-4.899v-4.522c.624.273 1.304.421 2 .421 2.757 0 5-2.243 5-5 0-.643-.131-1.27-.366-1.857.91-.093 1.828-.143 2.751-.143h2.761c.153 0 .301-.022.447-.045 2.521 2.594 4.258 5.863 4.997 9.379-.488-.213-1.025-.334-1.59-.334-2.206 0-4 1.794-4 4s1.794 4 4 4c.732 0 1.409-.212 2-.556v10.556z"/><path d="m43 57c-.552 0-1-.448-1-1s.448-1 1-1v-2c-1.654 0-3 1.346-3 3s1.346 3 3 3 3-1.346 3-3h-2c0 .552-.448 1-1 1z"/><path d="m45 42c1.654 0 3-1.346 3-3s-1.346-3-3-3-3 1.346-3 3 1.346 3 3 3zm0-4c.552 0 1 .448 1 1s-.448 1-1 1-1-.448-1-1 .448-1 1-1z"/><path d="m22 53c-1.654 0-3 1.346-3 3s1.346 3 3 3 3-1.346 3-3-1.346-3-3-3zm0 4c-.552 0-1-.448-1-1s.448-1 1-1 1 .448 1 1-.448 1-1 1z"/><path d="m9 9h-2c0 .561-.217.801-.707 1.291-.546.545-1.293 1.292-1.293 2.705s.747 2.16 1.293 2.705c.49.49.707.731.707 1.292 0 .563-.217.804-.708 1.295-.545.546-1.292 1.294-1.292 2.708 0 1.415.747 2.163 1.293 2.709.49.491.707.732.707 1.295h2c0-1.415-.747-2.163-1.293-2.709-.49-.491-.707-.731-.707-1.295 0-.563.217-.804.707-1.294.546-.546 1.293-1.294 1.293-2.709 0-1.414-.747-2.161-1.293-2.706-.49-.49-.707-.73-.707-1.291s.217-.801.707-1.291c.546-.545 1.293-1.292 1.293-2.705z"/><path d="m3 20.996c0-.563.217-.804.707-1.294.546-.546 1.293-1.294 1.293-2.709 0-1.414-.747-2.161-1.293-2.706-.49-.49-.707-.73-.707-1.291s.217-.801.707-1.291c.546-.545 1.293-1.292 1.293-2.705h-2c0 .561-.217.801-.707 1.291-.546.545-1.293 1.292-1.293 2.705s.747 2.16 1.293 2.705c.49.49.707.731.707 1.292 0 .563-.217.804-.708 1.295-.545.546-1.292 1.294-1.292 2.708 0 1.415.747 2.163 1.293 2.709.49.491.707.732.707 1.295h2c0-1.415-.747-2.163-1.293-2.709-.49-.491-.707-.731-.707-1.295z"/><path d="m63 16.993c0-1.414-.747-2.161-1.293-2.706-.49-.49-.707-.73-.707-1.291s.217-.801.707-1.291c.546-.545 1.293-1.292 1.293-2.705h-2c0 .561-.217.801-.707 1.291-.546.545-1.293 1.292-1.293 2.705s.747 2.16 1.293 2.705c.49.49.707.73.707 1.292 0 .563-.217.804-.708 1.295-.545.546-1.292 1.294-1.292 2.708 0 1.415.747 2.163 1.293 2.709.49.491.707.732.707 1.295h2c0-1.415-.747-2.163-1.293-2.709-.49-.491-.707-.731-.707-1.295 0-.563.217-.804.707-1.294.546-.546 1.293-1.294 1.293-2.709z"/><path d="m57 20.996c0-.563.217-.804.707-1.294.546-.546 1.293-1.294 1.293-2.709 0-1.414-.747-2.161-1.293-2.706-.49-.49-.707-.73-.707-1.291s.217-.801.707-1.291c.546-.545 1.293-1.292 1.293-2.705h-2c0 .561-.217.801-.707 1.291-.546.545-1.293 1.292-1.293 2.705s.747 2.16 1.293 2.705c.49.49.707.73.707 1.292 0 .563-.217.804-.708 1.295-.545.546-1.292 1.294-1.292 2.708 0 1.415.747 2.163 1.293 2.709.49.491.707.732.707 1.295h2c0-1.415-.747-2.163-1.293-2.709-.49-.491-.707-.731-.707-1.295z"/></g></g></svg>