<svg id="_x31_-outline-expand" enable-background="new 0 0 64 64" height="512" viewBox="0 0 64 64" width="512" xmlns="http://www.w3.org/2000/svg"><path d="m32 62h-29v-1c.62-1.86 1.71-3.48 3.12-4.74 1.42-1.26 3.16-2.16 5.07-2.56l2.2-.46 7.43-1.57c1.85-.39 3.18-2.02 3.18-3.92v-2.64h16v2.64c0 1.9 1.33 3.53 3.18 3.92l7.43 1.57 2.2.46c3.83.8 6.95 3.58 8.19 7.3v1z" fill="#4f5559"/><path d="m43.18 51.67 7.43 1.57c-3.9 4.06-10.78 6.76-18.61 6.76s-14.71-2.7-18.61-6.76l7.43-1.57c1.85-.39 3.18-2.02 3.18-3.92v-2.64h16v2.64c0 1.9 1.33 3.53 3.18 3.92" fill="#f2daae"/><path d="m50 22v7c0 9.94-8.06 18-18 18s-18-8.06-18-18v-7-1c0-9.94 8.06-18 18-18 4.97 0 9.47 2.02 12.73 5.27 3.25 3.26 5.27 7.76 5.27 12.73z" fill="#f2daae"/><path d="m44 31-12-2-12 2v12c7.111 5.333 16.889 5.333 24 0z" fill="#62c4c3"/><path d="m12 29h2v-8h-2c-2.209 0-4 1.791-4 4s1.791 4 4 4" fill="#e0c485"/><path d="m50 12h-2.428c1.243 2.146 2.07 4.563 2.334 7.153.059.273.094.556.094.847v1 8 7c0 6.075 4.925 11 11 11v-24c0-6.075-4.925-11-11-11" fill="#aa494a"/><path d="m52 21h-2v8h2c2.209 0 4-1.791 4-4s-1.791-4-4-4" fill="#e0c485"/><path d="m50 21v1c-12.71 0-23-4.92-23-11 0 6.08-5.81 11-13 11v-1c0-9.94 8.06-18 18-18 4.97 0 9.47 2.02 12.73 5.27 3.25 3.26 5.27 7.76 5.27 12.73" fill="#d36767"/><g fill="#3a4249"><path d="m44.6 43.8c.252-.189.4-.485.4-.8v-.197c1.699-1.601 3.068-3.481 4.069-5.538.634 6.024 5.742 10.735 11.931 10.735.553 0 1-.448 1-1v-24c0-6.617-5.383-12-12-12h-1.875c-3.356-5.392-9.32-9-16.125-9-10.139 0-18.424 7.989-18.949 18h-1.051c-2.757 0-5 2.243-5 5s2.243 5 5 5h1.054c.26 4.852 2.382 9.443 5.946 12.803v.197c0 .315.148.611.4.8 1.136.852 2.347 1.557 3.6 2.149v1.805c0 1.411-1.001 2.645-2.382 2.936l-9.635 2.029c-4.163.876-7.586 3.928-8.931 7.965-.035.102-.052.209-.052.316v1h2v-.833c1.156-3.292 3.976-5.771 7.395-6.491l1.675-.353c4.295 4.187 11.314 6.677 18.93 6.677 7.617 0 14.636-2.49 18.93-6.677l1.675.353c3.42.72 6.24 3.199 7.395 6.491v.833h2v-1c0-.107-.017-.214-.051-.316-1.346-4.037-4.768-7.089-8.932-7.965l-9.635-2.029c-1.38-.291-2.382-1.525-2.382-2.936v-1.805c1.253-.592 2.464-1.297 3.6-2.149m-24.208-13.879-5.392-6.291v-.673c5.699-.348 10.457-3.624 12.238-8.085 3.032 4.587 11.348 7.866 21.524 8.113l-5.197 6.929-11.4-1.9c-.11-.019-.22-.019-.329 0zm31.608-7.921c1.655 0 3 1.346 3 3s-1.345 3-3 3h-1v-6zm-7 17.891v-8.558l4-5.333v3c0 3.997-1.447 7.846-4 10.891m5-26.891c5.514 0 10 4.486 10 10v22.95c-5.046-.503-9-4.774-9-9.95v-6h1c2.757 0 5-2.243 5-5s-2.243-5-5-5h-1.051c-.13-2.491-.736-4.852-1.739-7zm-18-9c9.37 0 16.993 7.62 17 16.988-11.483-.247-21-4.72-21-9.988h-2c0 5.232-4.849 9.531-10.998 9.958.024-9.354 7.638-16.958 16.998-16.958m-23 21c0-1.654 1.346-3 3-3h1v6h-1c-1.654 0-3-1.346-3-3m6 4v-2.297l4 4.667v8.521c-2.553-3.045-4-6.894-4-10.891m6 11.22 3.804.76.393-1.96-4.197-.84v-2.36l4.197-.84-.393-1.96-3.804.76v-1.933l11-1.833 11 1.833v1.933l-3.803-.76-.393 1.96 4.196.84v2.36l-4.196.84.393 1.96 3.803-.76v2.272c-6.547 4.645-15.453 4.645-22 0zm21.97 12.427 5.538 1.166c-3.98 3.271-9.991 5.187-16.508 5.187s-12.527-1.916-16.508-5.187l5.539-1.166c2.3-.484 3.969-2.542 3.969-4.893v-.982c2.261.792 4.628 1.201 7 1.201s4.74-.409 7-1.201v.982c0 2.351 1.67 4.409 3.97 4.893"/><path d="m25 24c-1.104 0-2 .896-2 2s.896 2 2 2 2-.896 2-2-.896-2-2-2"/><path d="m39 28c1.104 0 2-.896 2-2s-.896-2-2-2-2 .896-2 2 .896 2 2 2"/></g></svg>