<svg viewBox="1 1 511.99998 511.99998" xmlns="http://www.w3.org/2000/svg"><path d="m512 256c0 141.386719-114.613281 256-256 256s-256-114.613281-256-256 114.613281-256 256-256 256 114.613281 256 256zm0 0" fill="#ffd861"/><path d="m232.492188 430.605469h47.019531v61.125h-47.019531zm0 0" fill="#3b3b3b"/><path d="m503.832031 86.695312v233.679688c-4.910156 19.015625-11.972656 37.167969-20.898437 54.199219-8.316406 15.902343-18.265625 30.824219-29.613282 44.535156-6.058593 7.324219-12.515624 14.304687-19.339843 20.894531h-355.953125c-6.824219-6.589844-13.28125-13.570312-19.34375-20.894531-11.347656-13.710937-21.292969-28.632813-29.613282-44.535156-8.921874-17.03125-15.984374-35.183594-20.894531-54.199219v-233.679688c0-10.011718 8.117188-18.128906 18.128907-18.128906h459.394531c10.015625 0 18.132812 8.117188 18.132812 18.128906zm0 0" fill="#4a4a4a"/><path d="m482.933594 89.464844v285.109375c-8.316406 15.902343-18.265625 30.824219-29.613282 44.535156h-394.636718c-11.347656-13.710937-21.292969-28.632813-29.613282-44.535156v-285.109375zm0 0" fill="#476787"/><path d="m373.886719 483.296875c-35.285157 18.335937-75.367188 28.703125-117.882813 28.703125-42.519531 0-82.601562-10.367188-117.886718-28.703125 28.453124-5.394531 70.71875-8.808594 117.886718-8.808594 47.175782 0 89.433594 3.414063 117.882813 8.808594zm0 0" fill="#4a4a4a"/><path d="m281.019531 103v179.40625h-205.988281v-179.40625c0-56.890625 46.109375-103 103-103 56.875 0 102.988281 46.109375 102.988281 103zm0 0" fill="#4a4a4a"/><path d="m142.03125 260.742188c1.894531 7.839843 3.214844 15.050781 3.984375 21.664062h-70.984375v-179.40625c0-56.890625 46.109375-103 103-103-45.226562 0-72 112.222656-36 260.742188zm0 0" fill="#3b3b3b"/><path d="m295.632812 285.421875v133.6875h-232.511718v-133.6875c0-9.140625 5.601562-17.34375 14.117187-20.6875l27.304688-10.679687c8.460937-3.3125 17.125-6.050782 25.921875-8.203126 15.96875-3.925781 32.402344-5.921874 48.914062-5.921874 12.808594 0 25.546875 1.199218 38.085938 3.5625 3.636718.679687 7.242187 1.472656 10.835937 2.359374 8.796875 2.152344 17.460938 4.890626 25.914063 8.203126l27.3125 10.679687c8.503906 3.34375 14.105468 11.546875 14.105468 20.6875zm0 0" fill="#ff7591"/><path d="m177.863281 239.9375c-7.542969.148438-15.046875 1.339844-22.433593 3.554688-7.871094 2.359374-15.621094 5.890624-23.105469 10.5625l-17.175781 10.679687c-5.359376 3.34375-8.871094 11.546875-8.871094 20.6875v133.6875h-43.15625v-133.6875c0-9.140625 5.601562-17.34375 14.105468-20.6875l27.316407-10.679687c11.910156-4.671876 24.230469-8.203126 36.75-10.5625 12.046875-2.269532 24.269531-3.46875 36.570312-3.554688zm0 0" fill="#e04f81"/><path d="m228.296875 245.847656v2.558594c0 20.53125-12.96875 39.019531-32.265625 46.003906-5.355469 1.9375-10.949219 2.914063-16.65625 2.914063-26.972656 0-48.917969-21.941407-48.917969-48.917969v-2.558594c15.976563-3.921875 32.40625-5.914062 48.917969-5.914062 12.808594 0 25.550781 1.195312 38.082031 3.558594 3.636719.683593 7.25 1.472656 10.839844 2.355468zm0 0" fill="#eae5da"/><path d="m211.46875 223.257812v25.144532c0 13.886718-8.820312 25.714844-21.171875 30.183594-3.40625 1.230468-7.085937 1.90625-10.921875 1.90625-17.722656 0-32.085938-14.367188-32.085938-32.089844v-25.144532zm0 0" fill="#c47764"/><path d="m211.46875 223.257812v25.144532c0 13.886718-8.820312 25.714844-21.171875 30.183594-12.351563-4.464844-21.175781-16.292969-21.175781-30.183594v-25.144532zm0 0" fill="#cf8f7c"/><path d="m259.058594 136.226562v22.992188c0 41.882812-31.761719 76.328125-72.511719 80.585938-2.792969.296874-5.644531.445312-8.519531.445312-44.753906 0-81.039063-36.273438-81.039063-81.03125v-22.992188c0-44.746093 36.28125-81.027343 81.039063-81.027343 2.875 0 5.726562.144531 8.519531.441406 18.984375 1.976563 36 10.507813 48.78125 23.289063 14.65625 14.664062 23.730469 34.929687 23.730469 57.296874zm0 0" fill="#c47764"/><path d="m259.058594 136.226562v22.992188c0 41.882812-31.761719 76.328125-72.511719 80.585938-40.757813-4.257813-72.519531-38.703126-72.519531-80.585938v-22.992188c0-41.871093 31.761718-76.324218 72.519531-80.585937 18.984375 1.976563 36 10.507813 48.78125 23.289063 14.65625 14.664062 23.730469 34.929687 23.730469 57.296874zm0 0" fill="#cf8f7c"/><path d="m158.292969 150.414062c0-8.363281-6.78125-15.148437-15.148438-15.148437-8.367187 0-15.148437 6.785156-15.148437 15.148437zm0 0" fill="#3b3b3b"/><path d="m227.71875 150.414062c0-8.363281-6.78125-15.148437-15.148438-15.148437-8.363281 0-15.144531 6.785156-15.144531 15.148437zm0 0" fill="#3b3b3b"/><path d="m178.023438 138.4375-12.496094 41.652344h12.496094" fill="#c47764"/><path d="m269.738281 132.457031c-78.769531 0-128.753906-45.441406-128.753906-45.441406 0 8.042969-6.542969 17.710937-15.300781 25.605469-11.871094 10.710937-27.796875 18.140625-36.953125 13.777344l-2.273438-24.226563 18.9375-40.148437 28.410157-7.167969 52.621093-13.277344 65.136719 25.75zm0 0" fill="#4a4a4a"/><path d="m186.496094 194.855469-7.28125 2.601562c-.769532.273438-1.613282.273438-2.382813 0l-7.28125-2.601562c-.984375-.351563-2.078125-.25-2.980469.277343l-7.785156 4.554688c-2.300781 1.347656-2.34375 4.660156-.078125 6.0625l6.125 3.800781c8.078125 5.007813 18.300781 5.007813 26.382813 0l6.125-3.800781c2.265625-1.402344 2.222656-4.714844-.078125-6.0625l-7.789063-4.554688c-.902344-.527343-1.992187-.628906-2.976562-.277343zm0 0" fill="#a55041"/><path d="m133.804688 54.855469c-4.304688 16.269531-7.132813 35.730469-8.121094 57.765625-11.871094 10.714844-27.796875 18.144531-36.953125 13.78125l-2.273438-24.230469 20.222657-56.425781zm0 0" fill="#3b3b3b"/><path d="m213.859375 324.199219c0 16.992187-11.921875 31.191406-27.855469 34.691406-2.46875.554687-5.039062.835937-7.671875.835937-19.621093 0-35.527343-15.902343-35.527343-35.527343 0-19.621094 15.90625-35.527344 35.527343-35.527344 2.632813 0 5.203125.28125 7.671875.835937 15.933594 3.5 27.855469 17.703126 27.855469 34.691407zm0 0" fill="#3b3b3b"/><path d="m213.859375 324.199219c0 16.992187-11.921875 31.191406-27.855469 34.691406-15.945312-3.492187-27.867187-17.699219-27.867187-34.691406 0-16.988281 11.921875-31.199219 27.867187-34.691407 15.933594 3.5 27.855469 17.703126 27.855469 34.691407zm0 0" fill="#4a4a4a"/><path d="m165.046875 375.398438h25.527344v43.710937h-25.527344zm0 0" fill="#476787"/><path d="m165.046875 375.398438h10.515625v43.710937h-10.515625zm0 0" fill="#33526b"/><path d="m210.726562 356.140625v20.753906c0 3.792969-3.070312 6.863281-6.863281 6.863281h-52.109375c-3.78125 0-6.855468-3.070312-6.855468-6.863281v-20.753906c0-3.792969 3.074218-6.863281 6.855468-6.863281h52.109375c3.792969 0 6.863281 3.070312 6.863281 6.863281zm0 0" fill="#1acece"/><path d="m210.726562 356.140625v20.753906c0 3.792969-3.070312 6.863281-6.863281 6.863281h-34.347656c-3.78125 0-6.851563-3.070312-6.851563-6.863281v-20.753906c0-3.792969 3.070313-6.863281 6.851563-6.863281h34.347656c3.792969 0 6.863281 3.070312 6.863281 6.863281zm0 0" fill="#7eeef6"/><path d="m207.414062 411.8125v7.296875h-59.207031v-7.296875c0-6.644531 5.382813-12.035156 12.027344-12.035156h35.152344c6.644531 0 12.027343 5.390625 12.027343 12.035156zm0 0" fill="#c47764"/><path d="m207.414062 411.8125v7.296875h-43.886718v-7.296875c0-6.644531 5.390625-12.035156 12.035156-12.035156h19.824219c6.644531 0 12.027343 5.390625 12.027343 12.035156zm0 0" fill="#cf8f7c"/><path d="m316.46875 149.703125h183.828125c6.464844 0 11.703125-5.242187 11.703125-11.703125v-75.515625c0-6.460937-5.238281-11.699219-11.703125-11.699219h-183.828125c-6.464844 0-11.703125 5.238282-11.703125 11.699219v75.515625c0 6.460938 5.238281 11.703125 11.703125 11.703125zm0 0" fill="#f66967"/><g fill="#fff"><path d="m350.007812 118.480469-14.035156-26.242188v26.242188c0 1.761719-2.152344 2.675781-4.242187 2.675781-2.152344 0-4.242188-.914062-4.242188-2.675781v-42.363281c0-1.828126 2.089844-2.675782 4.242188-2.675782 3.070312 0 4.308593.652344 6.332031 4.503906l12.597656 24.347657v-26.242188c0-1.828125 2.089844-2.613281 4.246094-2.613281 2.085938 0 4.242188.785156 4.242188 2.613281v42.425781c0 1.765626-2.15625 2.675782-4.242188 2.675782-2.027344.003906-3.789062-.652344-4.898438-2.671875zm0 0"/><path d="m378.074219 93.933594h9.921875c1.699218 0 2.675781 1.632812 2.675781 3.398437 0 1.5-.847656 3.261719-2.675781 3.261719h-9.921875v13.121094h18.472656c1.699219 0 2.679687 1.761718 2.679687 3.785156 0 1.761719-.851562 3.652344-2.679687 3.652344h-23.234375c-1.894531 0-3.722656-.914063-3.722656-2.675782v-42.359374c0-1.765626 1.828125-2.675782 3.722656-2.675782h23.234375c1.828125 0 2.679687 1.890625 2.679687 3.652344 0 2.023438-.980468 3.785156-2.679687 3.785156h-18.472656zm0 0"/><path d="m446.875 118.675781c-.652344 1.957031-3.066406 2.871094-5.546875 2.871094-2.417969 0-4.964844-.914063-5.417969-2.871094l-4.179687-17.625-4.242188 17.625c-.457031 1.957031-3.003906 2.871094-5.417969 2.871094-2.480468 0-4.960937-.914063-5.550781-2.871094l-12.921875-41.058593c-.066406-.195313-.132812-.523438-.132812-.785157 0-1.890625 3.003906-3.394531 5.417968-3.394531 1.308594 0 2.480469.457031 2.808594 1.699219l10.3125 35.375 5.550782-22.714844c.390624-1.628906 2.285156-2.347656 4.175781-2.347656 1.828125 0 3.722656.71875 4.113281 2.347656l5.546875 22.714844 10.316406-35.375c.324219-1.242188 1.5-1.699219 2.804688-1.699219 2.414062 0 5.417969 1.503906 5.417969 3.394531 0 .261719-.066407.589844-.128907.785157zm0 0"/><path d="m486.820312 108.425781c0-9.789062-20.953124-6.789062-20.953124-22.257812 0-9.726563 8.355468-13.054688 15.863281-13.054688 3.851562 0 12.402343.914063 12.402343 5.222657 0 1.5-1.046874 4.503906-3.394531 4.503906-2.023437 0-3.523437-2.480469-9.007812-2.480469-4.699219 0-7.375 1.890625-7.375 5.023437 0 8.09375 20.953125 5.289063 20.953125 22.195313 0 9.332031-6.527344 14.164063-15.535156 14.164063-8.550782 0-15.082032-4.308594-15.082032-8.09375 0-1.828126 1.699219-4.570313 3.722656-4.570313 2.675782 0 4.4375 5.027344 11.097657 5.027344 3.917969 0 7.308593-1.761719 7.308593-5.679688zm0 0"/></g></svg>