<svg height="512" viewBox="0 0 512 512" width="512" xmlns="http://www.w3.org/2000/svg"><g id="Filled-Outline"><path d="m256 456h120v-224l40 40 24-24-184-184-184 184 24 24 40-40v224z" fill="#00a8e7"/><g fill="#f77f7f"><path d="m431.5 296.72v16a8 8 0 0 0 16 0v-16a8 8 0 0 0 -2.06-15.72h-11.88a8 8 0 0 0 -2.06 15.72z"/><path d="m447.5 376.28v-16a8 8 0 0 0 -16 0v16a8 8 0 0 0 2.06 15.72h11.88a8 8 0 0 0 2.06-15.72z"/><path d="m399.72 344.5h16a8 8 0 0 0 0-16h-16a8 8 0 0 0 -15.72 2.06v11.88a8 8 0 0 0 15.72 2.06z"/><path d="m487 322.56a8 8 0 0 0 -7.72 5.94h-16a8 8 0 0 0 0 16h16a8 8 0 0 0 15.72-2.06v-11.88a8 8 0 0 0 -8-8z"/></g><circle cx="439.5" cy="336.5" fill="#fd918c" r="23.75"/><path d="m421.13 366.19 7.23-7.24a8 8 0 1 0 -11.31-11.31l-7.24 7.23-.28-.28a8 8 0 0 0 -11.31 11.32l11.87 11.87a8 8 0 1 0 11.32-11.31z" fill="#e22526"/><path d="m403.88 320.75a8 8 0 0 0 5.65-2.34l.28-.29 7.24 7.24a8 8 0 1 0 11.31-11.31l-7.23-7.24.28-.28a8 8 0 0 0 -11.32-11.32l-11.87 11.88a8 8 0 0 0 5.66 13.66z" fill="#e22526"/><path d="m457.88 306.81-7.24 7.24a8 8 0 0 0 11.36 11.31l7.24-7.24.28.29a8 8 0 0 0 11.32-11.32l-5.93-5.93-5.93-5.93a8 8 0 0 0 -11.32 11.32z" fill="#e22526"/><path d="m469.47 354.59-.28.28-7.19-7.23a8 8 0 1 0 -11.36 11.36l7.24 7.24-.29.28a8 8 0 0 0 11.32 11.31l11.88-11.87a8 8 0 0 0 -11.32-11.32z" fill="#e22526"/><path d="m64.5 399.72v16a8 8 0 0 0 16 0v-16a8 8 0 0 0 -2.06-15.72h-11.88a8 8 0 0 0 -2.06 15.72z" fill="#f77f7f"/><path d="m80.5 479.28v-16a8 8 0 0 0 -16 0v16a8 8 0 0 0 2.06 15.72h11.88a8 8 0 0 0 2.06-15.72z" fill="#f77f7f"/><path d="m32.72 447.5h16a8 8 0 0 0 0-16h-16a8 8 0 0 0 -15.72 2.06v11.88a8 8 0 0 0 15.72 2.06z" fill="#f77f7f"/><path d="m120 425.56a8 8 0 0 0 -7.72 5.94h-16a8 8 0 0 0 0 16h16a8 8 0 0 0 15.72-2.06v-11.88a8 8 0 0 0 -8-8z" fill="#f77f7f"/><circle cx="72.5" cy="439.5" fill="#fd918c" r="23.75"/><path d="m54.12 469.19 7.24-7.19a8 8 0 1 0 -11.31-11.31l-7.24 7.24-.28-.29a8 8 0 0 0 -11.32 11.32l11.88 11.88a8 8 0 0 0 11.32-11.32z" fill="#e22526"/><path d="m36.87 423.75a8 8 0 0 0 5.66-2.34l.28-.28 7.24 7.23a8 8 0 1 0 11.31-11.31l-7.24-7.24.29-.28a8 8 0 0 0 -11.32-11.31l-11.88 11.87a8 8 0 0 0 5.66 13.66z" fill="#e22526"/><path d="m90.87 409.81-7.23 7.24a8 8 0 1 0 11.36 11.31l7.24-7.23.28.28a8 8 0 1 0 11.31-11.32l-5.93-5.92-5.92-5.93a8 8 0 0 0 -11.32 11.31z" fill="#e22526"/><path d="m102.47 457.59-.28.29-7.19-7.24a8 8 0 1 0 -11.36 11.36l7.23 7.24-.28.28a8 8 0 0 0 11.32 11.32l11.87-11.88a8 8 0 0 0 -11.31-11.32z" fill="#e22526"/><circle cx="432" cy="472" fill="#f77f7f" r="16"/><circle cx="40" cy="304" fill="#f77f7f" r="16"/><circle cx="216" cy="40" fill="#f77f7f" r="16"/><circle cx="480" cy="264" fill="#e22526" r="8"/><circle cx="416" cy="424" fill="#e22526" r="8"/><circle cx="472" cy="440" fill="#e22526" r="8"/><circle cx="456" cy="208" fill="#f77f7f" r="8"/><circle cx="96" cy="336" fill="#e22526" r="8"/><circle cx="48" cy="216" fill="#e22526" r="8"/><circle cx="304" cy="56" fill="#e22526" r="8"/><path d="m232 336h-32a48 48 0 0 0 -48 48v8h208v-8a48 48 0 0 0 -48-48z" fill="#fd918c"/><path d="m232 320a16 16 0 0 1 -16 16h-16a65 65 0 0 0 112 0h-16a16 16 0 0 1 -16-16 24 24 0 0 0 24-24v-88h-96v88a24 24 0 0 0 24 24z" fill="#fac8b2"/><path d="m208 272h96a0 0 0 0 1 0 0v24a24 24 0 0 1 -24 24h-48a24 24 0 0 1 -24-24v-24a0 0 0 0 1 0 0z" fill="#5ec09b"/><path d="m304 200a32 32 0 0 1 -32 32h-64v80l-21 .13a25.78 25.78 0 0 1 -18.38-7.55l-.31-.31a26.48 26.48 0 0 1 -2.49-34.64 62.36 62.36 0 0 0 12.1-30.55l2.26-26.28a76.17 76.17 0 0 1 44.94-63 76.12 76.12 0 0 1 61.84 0 76.17 76.17 0 0 1 44.94 63l2.26 26.28a62.36 62.36 0 0 0 12.1 30.55l.18.24a25.94 25.94 0 0 1 -2.3 34l-.28.28a26.55 26.55 0 0 1 -18.86 7.85h-21z" fill="#ffdb43"/><circle cx="232" cy="256" fill="#683b11" r="8"/><circle cx="280" cy="256" fill="#683b11" r="8"/><rect fill="#d1e1e5" height="96" rx="8" width="272" x="120" y="392"/><circle cx="256" cy="440" fill="#eceff0" r="16"/><path d="m352 168h24v40l40-40h64a8 8 0 0 0 8-8v-128a8 8 0 0 0 -8-8h-128a8 8 0 0 0 -8 8v128a8 8 0 0 0 8 8z" fill="#f98800"/><path d="m376 128h80a0 0 0 0 1 0 0v24a16 16 0 0 1 -16 16h-48a16 16 0 0 1 -16-16v-24a0 0 0 0 1 0 0z" fill="#ffdb43" transform="matrix(-1 0 0 -1 832 296)"/><circle cx="416" cy="96" fill="#ffdb43" r="32"/><path d="m416 115.31a19.22 19.22 0 0 1 -13.66-5.65 8 8 0 0 1 11.32-11.32 3.3 3.3 0 0 0 4.68 0 8 8 0 1 1 11.32 11.32 19.22 19.22 0 0 1 -13.66 5.65z" fill="#f98800"/><path d="m160 168h-24v40l-40-40h-64a8 8 0 0 1 -8-8v-128a8 8 0 0 1 8-8h128a8 8 0 0 1 8 8v128a8 8 0 0 1 -8 8z" fill="#ffdb43"/><path d="m72 128h48a16 16 0 0 1 16 16v24a0 0 0 0 1 0 0h-80a0 0 0 0 1 0 0v-24a16 16 0 0 1 16-16z" fill="#b71e71"/><circle cx="96" cy="96" fill="#b71e71" r="32"/><path d="m96 115.31a19.22 19.22 0 0 1 -13.66-5.65 8 8 0 0 1 11.32-11.32 3.3 3.3 0 0 0 4.68 0 8 8 0 0 1 11.32 11.32 19.22 19.22 0 0 1 -13.66 5.65z" fill="#ffdb43"/><path d="m432 448a24 24 0 0 0 -24 24c1.32 31.84 46.69 31.83 48 0a24 24 0 0 0 -24-24zm0 32a8 8 0 0 1 -8-8c.4-10.6 15.6-10.6 16 0a8 8 0 0 1 -8 8zm-416-176a24 24 0 0 0 24 24c31.84-1.32 31.83-46.69 0-48a24 24 0 0 0 -24 24zm32 0a8 8 0 0 1 -8 8c-10.6-.4-10.6-15.6 0-16a8 8 0 0 1 8 8zm168-240a24 24 0 0 0 24-24c-1.32-31.84-46.69-31.83-48 0a24 24 0 0 0 24 24zm0-32a8 8 0 0 1 8 8c-.4 10.6-15.6 10.6-16 0a8 8 0 0 1 8-8zm264 224a8 8 0 0 1 8 8c-.39 10.6-15.61 10.6-16 0a8 8 0 0 1 8-8zm-64 176a8 8 0 0 1 -8-8c.39-10.6 15.61-10.6 16 0a8 8 0 0 1 -8 8zm64 8a8 8 0 0 1 -8 8c-10.6-.39-10.6-15.61 0-16a8 8 0 0 1 8 8zm-24-240a8 8 0 0 1 8 8c-.39 10.6-15.61 10.6-16 0a8 8 0 0 1 8-8zm-368 136a8 8 0 0 1 8-8c10.6.39 10.6 15.61 0 16a8 8 0 0 1 -8-8zm-40-112a8 8 0 0 1 -8-8c.39-10.6 15.61-10.6 16 0a8 8 0 0 1 -8 8zm248-168a8 8 0 0 1 8-8c10.6.39 10.6 15.61 0 16a8 8 0 0 1 -8-8zm-64 208a8 8 0 0 1 -8-8c.39-10.6 15.61-10.6 16 0a8 8 0 0 1 -8 8zm48 0a8 8 0 0 1 -8-8c.39-10.6 15.61-10.6 16 0a8 8 0 0 1 -8 8zm-24 152a24 24 0 0 0 -24 24c1.32 31.84 46.69 31.83 48 0a24 24 0 0 0 -24-24zm0 32a8 8 0 0 1 -8-8c.4-10.6 15.6-10.6 16 0a8 8 0 0 1 -8 8zm240-288v-128a16 16 0 0 0 -16-16h-128a16 16 0 0 0 -16 16v100.69l-74.34-74.35a8 8 0 0 0 -11.32 0l-74.34 74.35v-100.69a16 16 0 0 0 -16-16h-128a16 16 0 0 0 -16 16v128a16 16 0 0 0 16 16h60.69l20 20-46.35 46.34a8 8 0 0 0 0 11.32l24 24a8 8 0 0 0 11.32 0l26.34-26.35v132.69a16 16 0 0 0 -16 16v8.81l-10.59-10.59c-8-7.37-18.77 4-11 11.59l-2.32 2.32a31.65 31.65 0 0 0 -8.09-3.36v-9c8.9-2.5 7.3-15.55-2.06-15.72h-11.88c-9.35.16-11 13.22-2.06 15.72v9a31.65 31.65 0 0 0 -8.06 3.36l-2.32-2.32c7.74-7.6-3.06-19-11-11.59l-11.9 11.87c-7.37 8 4 18.78 11.59 11l2.32 2.31a31.65 31.65 0 0 0 -3.36 8.06h-9.05c-2.5-8.9-15.56-7.3-15.72 2.06v11.88c.16 9.35 13.22 11 15.72 2.06h9.05a31.5 31.5 0 0 0 3.36 8.06l-2.32 2.32c-7.61-7.74-19 3.06-11.59 11l5.92 5.92s5.93 5.92 6 5.95c8 7.37 18.78-4 11-11.59l2.31-2.31a32 32 0 0 0 8.05 3.42v9c-8.9 2.5-7.3 15.56 2.06 15.72h11.88c9.35-.16 11-13.22 2.06-15.72v-9a32 32 0 0 0 8.06-3.35l2.31 2.31c-7.74 7.61 3.08 19 11 11.59l10.63-10.59v9.81a16 16 0 0 0 16 16h256a16 16 0 0 0 16-16v-80a16 16 0 0 0 -16-16v-41.56c.17 9.36 13.22 11 15.72 2.06h9a31.65 31.65 0 0 0 3.36 8.06l-2.32 2.31c-7.61-7.73-19 3.07-11.59 11l11.87 11.87a8 8 0 1 0 11-11.59l2.31-2.32a31.65 31.65 0 0 0 8.06 3.36v9c-8.9 2.5-7.3 15.55 2.06 15.72h11.88c9.35-.16 11-13.22 2.06-15.72v-9a31.5 31.5 0 0 0 8.06-3.36l2.32 2.32c-5.41 4.88-1.84 14 5.37 13.93a8 8 0 0 0 5.66-2.34l11.88-11.87c7.36-8-4-18.78-11.6-11l-2.32-2.31a31.65 31.65 0 0 0 3.36-8.06h9c2.5 8.9 15.56 7.3 15.72-2.06v-11.88c-.16-9.35-13.22-11-15.72-2.06h-9a31.5 31.5 0 0 0 -3.36-8.06l2.32-2.32c7.61 7.74 19-3.07 11.6-11 0 0-5.93-5.93-6-5.95l-5.93-5.93c-8-7.36-18.77 4-11 11.6l-2.32 2.31a31.83 31.83 0 0 0 -8.06-3.35v-9c8.91-2.5 7.3-15.56-2.06-15.72h-11.77c-9.35.16-11 13.22-2.06 15.72v9a31.65 31.65 0 0 0 -8.06 3.36l-2.31-2.32c7.73-7.61-3.07-19-11-11.6l-11.87 11.88c-7.37 8 4 18.77 11.59 11l2.32 2.32a31.5 31.5 0 0 0 -3.36 8.06h-9c-2.5-8.91-15.56-7.29-15.72 2.06v-79.25l26.34 26.35a8 8 0 0 0 11.32 0l24-24a8 8 0 0 0 0-11.32l-46.44-46.34 20-20h60.69a16 16 0 0 0 16-16zm-394 261.41a8 8 0 0 0 10 1v8.36c-.08.22-.16.46-.22.69h-9a31.65 31.65 0 0 0 -3.36-8.06l2.32-2.31zm-30 33.84a15.76 15.76 0 0 1 -15.75-15.75c.86-20.89 30.64-20.89 31.5 0a15.76 15.76 0 0 1 -15.75 15.75zm30 2.35-.28.28-2.32-2.32a31.5 31.5 0 0 0 3.36-8.06h9c.06.24.14.47.22.7v8.35a8 8 0 0 0 -9.98 1.05zm-70-425.6h128v128h-16v-16a24 24 0 0 0 -16.87-22.92c21-25.62 2.3-65.23-31.13-65.08-33.43-.15-52.15 39.46-31.13 65.08a24 24 0 0 0 -16.87 22.92v16h-16zm40 64a24 24 0 0 1 24-24c31.84 1.32 31.83 46.69 0 48a24 24 0 0 1 -24-24zm-8 64v-16a8 8 0 0 1 8-8h48a8 8 0 0 1 8 8v44.69l-26.34-26.35a8.33 8.33 0 0 0 -2-1.46 8 8 0 0 0 -3.66-.88zm152 80h56a39.81 39.81 0 0 0 24-8v32h-80zm96 56v-96a8 8 0 0 0 -16 0 24 24 0 0 1 -24 24h-64a8 8 0 0 0 -8 8v40 32.05l-13.19.08c-14.89.06-23.66-17.88-14.66-29.67 14.79-19.33 13.8-38.26 15.93-61a68.15 68.15 0 0 1 40.22-56.42c41.85-19.24 92.21 10.46 95.56 56.42 0 .2 2.26 26.31 2.28 26.49a70.48 70.48 0 0 0 13.86 34.76c9.22 12-.18 29.39-15 29.3h-13zm-96-16h80v16a16 16 0 0 1 -16 16h-48a16 16 0 0 1 -16-16zm22.62 48h34.76a24 24 0 0 0 22.49 16c-20.45 21.28-59.47 21.21-79.79 0a24 24 0 0 0 22.54-16zm-43 16.24c27.2 42.3 93.65 42.15 120.72 0a40.06 40.06 0 0 1 35.66 39.76h-192c-.39-19.88 15.9-38 35.64-39.76zm188.38 135.76h-256v-80h256zm55.5-159.25a15.76 15.76 0 0 1 15.75 15.75c-.86 20.89-30.64 20.89-31.5 0a15.77 15.77 0 0 1 15.75-15.75zm-10.81-72.75-12.69 12.69-34.34-34.35a8 8 0 0 0 -13.66 5.66v152a56.06 56.06 0 0 0 -56-56h-16a8 8 0 0 1 -5.16-1.89 32.43 32.43 0 0 0 10.72-6.49c3.48.84 11.35.18 23.4.39 28 .26 45-32.58 27.81-55a54.41 54.41 0 0 1 -10.69-26.73l-2.25-26.19c-4.14-56.76-66.33-93.43-118-69.67a84.16 84.16 0 0 0 -49.66 69.67l-2.25 26.19a54.54 54.54 0 0 1 -10.51 26.5c-16.94 22.27-.64 55.42 27.4 55.34 1.48-.14 22.86.22 23.63-.51a32.43 32.43 0 0 0 10.72 6.49 8 8 0 0 1 -5.16 1.9h-16c-30.12-.62-56.62 25.89-56 56v-152a8 8 0 0 0 -13.66-5.66l-34.34 34.35-12.69-12.69 40.69-40.69 6.34 6.35c4.91 5 13.76 1.34 13.66-5.66v-20.69l11.31-11.31h4.69a16 16 0 0 0 16-16v-4.69l80-80 80 80v4.69a16 16 0 0 0 16 16h4.69l11.31 11.31v20.69c-.1 7 8.75 10.69 13.66 5.66l6.34-6.35zm-12.69-88a8.05 8.05 0 0 0 -5.66 2.34l-26.34 26.35c0-11.75 0-32.8 0-44.69a8 8 0 0 1 8-8h48a8 8 0 0 1 8 8v16zm-24-64a24 24 0 0 1 24-24c31.84 1.32 31.83 46.69 0 48a24 24 0 0 1 -24-24zm88 64h-16v-16a24 24 0 0 0 -16.87-22.92c21-25.62 2.3-65.23-31.13-65.08-33.43-.15-52.15 39.46-31.13 65.08a24 24 0 0 0 -16.87 22.92v16h-16v-128h128zm-50.34-61.66c7.83 8.91-5.18 17.35-13.66 17-8.48.38-21.49-8.06-13.66-17a8 8 0 0 1 11.32 0 3.3 3.3 0 0 0 4.68 0 8 8 0 0 1 11.32 0zm-320 0c7.83 8.91-5.18 17.35-13.66 17-8.48.38-21.49-8.06-13.66-17a8 8 0 0 1 11.32 0 3.3 3.3 0 0 0 4.68 0 8 8 0 0 1 11.32 0z"/></g></svg>