<svg height="512" viewBox="0 0 60 60" width="512" xmlns="http://www.w3.org/2000/svg"><g id="Page-1" fill="none" fill-rule="evenodd"><g id="071---No-Energy" fill-rule="nonzero" transform="translate(-1)"><g id="Icons" transform="translate(1 1)"><path id="Shape" d="m59 33v21c0 2.209139-1.790861 4-4 4h-12c-.1945499.003663-.3889473-.0130954-.58-.05h-.01c-1.9599001-.287088-3.4120405-1.9691861-3.41-3.95v-21c0-2.209139 1.790861-4 4-4h12c2.209139 0 4 1.790861 4 4z" fill="#02a8f3"/><path id="Shape" d="m55 29h-3c2.209139 0 4 1.790861 4 4v21c0 2.209139-1.790861 4-4 4h3c2.209139 0 4-1.790861 4-4v-21c0-2.209139-1.790861-4-4-4z" fill="#0377bb"/><path id="Shape" d="m55 49v4c0 .5522847-.4477153 1-1 1h-10c-.5522847 0-1-.4477153-1-1v-4z" fill="#f34335"/><path id="Shape" d="m52 49v4c0 .5522847-.4477153 1-1 1h3c.5522847 0 1-.4477153 1-1v-4z" fill="#c71e1e"/><path id="Shape" d="m55 34v15h-12v-15c0-.5522847.4477153-1 1-1h10c.5522847 0 1 .4477153 1 1z" fill="#3f51b4"/><path id="Shape" d="m54 33h-3c.5522847 0 1 .4477153 1 1v15h3v-15c0-.5522847-.4477153-1-1-1z" fill="#283592"/><path id="Shape" d="m54 27v2h-10v-2c0-1.07-.09-1.95.91-1.99.0292484-.0082476.0596546-.0116261.09-.01h8c1.1 0 1 .9 1 2z" fill="#7f8d93"/><path id="Shape" d="m53 25h-3c1.1 0 1 .9 1 2v2h3v-2c0-1.1.1-2-1-2z" fill="#545c60"/><path id="Shape" d="m39 24c0 2.209139-1.790861 4-4 4-.8661373 2.2946331-2.2644464 4.35097-4.08 6-4.5191155 4.0225874-11.3359639 4.0182865-15.85-.01-1.8094092-1.6483281-3.2039295-3.7007056-4.07-5.99-2.209139 0-4-1.790861-4-4s1.790861-4 4-4v-3.94c3.85.04 12.03-.84 12.03-9.06 0 8.18 8.1 9.09 11.97 9.06v3.94c2.209139 0 4 1.790861 4 4z" fill="#ffdfb1"/><path id="Shape" d="m35 20v-3.94c-3.87.03-11.97-.88-11.97-9.06.0624109 1.81719432-.4636958 3.6059572-1.5 5.1 2.524 3.485 7.63 3.982 10.47 3.96v3.94c2.209139 0 4 1.790861 4 4s-1.790861 4-4 4c-.8661373 2.2946331-2.2644464 4.35097-4.08 6-1.7797896 1.6222661-4.0268283 2.6404337-6.42 2.909 3.4152015.4652029 6.8617699-.5991355 9.42-2.909 1.8155536-1.64903 3.2138627-3.7053669 4.08-6 2.209139 0 4-1.790861 4-4s-1.790861-4-4-4z" fill="#dec39b"/><path id="Shape" d="m30 45c0 3.8659932-3.1340068 7-7 7s-7-3.1340068-7-7c.5556115-.3956234 1.0595272-.8592258 1.5-1.38.9167282-.9885153 1.4488914-2.2728026 1.5-3.62.0817096-1.4450181-.2925756-2.8791949-1.07-4.1 3.2243813 1.4666801 6.9256187 1.4666801 10.15 0-.7847299 1.2179748-1.1628651 2.6534879-1.08 4.1 0 3 3 5 3 5z" fill="#ffdfb1"/><path id="Shape" d="m27 40c-.0828651-1.4465121.2952701-2.8820252 1.08-4.1-1.1213362.520635-2.3188462.8582471-3.547 1-.3779506.9887356-.5590113 2.041809-.533 3.1 0 3 3 5 3 5-.0006562 3.2874693-2.2888951 6.1315423-5.5 6.836.4926918.1081794.9955723.163161 1.5.164 3.8659932 0 7-3.1340068 7-7 0 0-3-2-3-5z" fill="#dec39b"/><path id="Shape" d="m42.41 57.95c-.1343584.0319934-.2718905.0487656-.41.05h-38c-1.10320187-.0032948-1.9967052-.8967981-2-2-.00159287-2.9178694 1.15682085-5.716688 3.22006641-7.7799336 2.06324555-2.0632455 4.86206419-3.2216593 7.77993359-3.2200664h3c-.0000001 2.5008592 1.3341924 4.8117484 3.5 6.0621779 2.1658075 1.2504296 4.8341925 1.2504296 7 0 2.1658076-1.2504295 3.5000001-3.5613187 3.5-6.0621779h3c2.1311683-.007114 4.217499.6118308 6 1.78v7.22c-.0020405 1.9808139 1.4500999 3.662912 3.41 3.95z" fill="#ffdb00"/><path id="Shape" d="m39 54v-7.22c-1.782501-1.1681692-3.8688317-1.787114-6-1.78l-3-.0000606c2.1311683-.0070534 4.217499.6118914 6 1.7800606v7.22c-.0020405 1.9808139 1.4500999 3.662912 3.41 3.95-.1343584.0319934-.2718905.0487656-.41.05h3c.1381095-.0012344.2756416-.0180066.41-.05-1.9599001-.287088-3.4120405-1.9691861-3.41-3.95z" fill="#fdc008"/><path id="Shape" d="m44.91 25.01c-1 .04-.91.92-.91 1.99v2h-1c-2.209139 0-4 1.790861-4 4v7.73c-3.39-.6-6.97-2.31-8.08-6.73 1.8155536-1.64903 3.2138627-3.7053669 4.08-6 2.209139 0 4-1.790861 4-4s-1.790861-4-4-4v-3.94c-3.87.03-11.97-.88-11.97-9.06 0 8.22-8.18 9.1-12.03 9.06v3.94c-2.209139 0-4 1.790861-4 4s1.790861 4 4 4c.8660705 2.2892944 2.2605908 4.3416719 4.07 5.99-1.68 6.78-9.14 7.2-12.9 6.96-.44072958-.0580049-.82541984-.3274385-1.03056779-.7218006s-.204936-.8640226.00056779-1.2581994c2.67-5.74-3.28-15.61 2.67-28.09 5.19-10.88 19.19-10.88 19.19-10.88s14 0 19.19 10.88c2.0831919 4.4054376 3.0188463 9.2660243 2.72 14.13z" fill="#90562d"/><path id="Shape" d="m42.19 10.88c-5.19-10.88-19.19-10.88-19.19-10.88s-.565 0-1.5.088c3.747.347 13.536 2.085 17.69 10.792 2.0831919 4.4054376 3.0188463 9.2660243 2.72 14.13-1 .04-.91.92-.91 1.99v2h-1c-2.209139 0-4 1.790861-4 4v6.856c.9633536.4049098 1.9699124.698154 3 .874v-7.73c0-2.209139 1.790861-4 4-4h1v-2c0-1.07-.09-1.95.91-1.99.2988463-4.8639757-.6368081-9.7245624-2.72-14.13z" fill="#6d4122"/></g><g id="Icons_copy" fill="#000"><path id="Shape" d="m56 29v-1.257c.1189326-.7850961-.0892615-1.5846193-.576-2.212-.381813-.3647111-.8966139-.5566769-1.424-.531h-7.062c.1355846-4.6784409-.8397444-9.3223913-2.846-13.551-5.399-11.319-19.492-11.449-20.092-11.449s-14.693.13-20.093 11.449c-3.681 7.723-2.963 14.425-2.386 19.81.358 3.345.667 6.235-.285 8.284-.34721846.7299513-.31319166 1.5839867.091 2.284.36761762.6482335 1.03558884 1.0691418 1.779 1.121.431.028.935.048 1.492.048 3.718 0 9.763-.9 11.982-6.343.5203946.3680231 1.0675877.6966064 1.637.983.5751011 1.0242477.8466887 2.1910685.783 3.364 0 1.986-1.709 3.511-2.33 4h-2.67c-3.1830859-.0015927-6.23625834 1.2621779-8.48704024 3.5129598-2.25078189 2.2507819-3.5145525 5.3039543-3.51295976 8.4870402 0 1.6568542 1.34314575 3 3 3h38c.1551724-.0059272.3096434-.0239822.462-.054.1782345.0276404.3578276.0456665.538.054h12c2.7600532-.0033061 4.9966939-2.2399468 5-5v-21c-.0027561-2.7602813-2.2397187-4.9972439-5-5zm-2-1.272v1.272h-8v-1.272c-.0068037-.2427977-.0011295-.4857846.017-.728h7.966c.0181295.2422154.0238037.4852023.017.728zm-50.754 13.225c-.08268571-.0060036-.15552242-.0566059-.19-.132-.07257529-.1330304-.0759322-.2930429-.009-.429 1.189-2.558.852-5.7.462-9.346-.55-5.135-1.235-11.525 2.2-18.735 4.854-10.169 18.158-10.311 18.291-10.311s13.438.142 18.288 10.311c1.9104077 4.041837 2.8180587 8.4847301 2.646 12.952-.1307824.0729199-.2511899.1630574-.358.268-.4867385.6273807-.6949326 1.4269039-.576 2.212v1.257c-2.7602813.0027561-4.9972439 2.2397187-5 5v6.479c-3.107-.817-5.095-2.566-5.938-5.2 1.5367683-1.5311722 2.7710015-3.3384179 3.638-5.327 2.4122927-.3378129 4.230121-2.3647974 4.3042593-4.7995.0741383-2.4347027-1.6169903-4.5685373-4.0042593-5.0525v-2.066c.644-.033 1.058-.083 1.127-.092.5478665-.069864.935364-.5706335.8655-1.1185s-.5706335-.935364-1.1185-.8655c-.07.008-6.938.834-10.586-2.383-1.5466496-1.4287174-2.3759056-3.472529-2.262-5.575 0-.55228475-.4477153-1-1-1s-1 .44771525-1 1c.1139056 2.102471-.7153504 4.1462826-2.262 5.575-3.649 3.218-10.516 2.392-10.586 2.383-.54614788-.0633556-1.04280739.3213556-1.118.866-.06959728.5475177.31754697 1.047896.865 1.118.067.009.466.055 1.075.089v2.069c-2.38588647.4851589-4.0754584 2.6183381-4.00134655 5.0519241s1.89035902 4.4599998 4.30134655 4.7990759c.8665105 1.9886063 2.1004235 3.79588 3.637 5.327-1.737 5.451-8.037 5.913-11.691 5.675zm28.084 4.047c-.624-.491-2.33-2.016-2.33-4-.0636887-1.1729315.2078989-2.3397523.783-3.364.5694123-.2863936 1.1166054-.6149769 1.637-.983 1.237 3.016 3.834 5.014 7.58 5.872v3.563c-1.5686289-.7192214-3.2743493-1.0903862-5-1.088zm-18.382-16.318c-.1366476-.4074034-.5182907-.681961-.948-.682-1.6568542 0-3-1.3431458-3-3s1.3431458-3 3-3c.5522847 0 1-.4477153 1-1v-2.949c2.651-.084 6.448-.654 9.081-2.97.8022624-.7012639 1.4625304-1.5499373 1.945-2.5.4818369.9504641 1.1421929 1.7992507 1.945 2.5 2.617 2.3 6.38 2.877 9.029 2.966v2.953c0 .5522847.4477153 1 1 1 1.6568542 0 2.9999999 1.3431458 2.9999999 3s-1.3431457 3-2.9999999 3c-.4306074-.0001037-.8129281.2754572-.949.684-.028.083-2.866 8.316-11.051 8.316-8.152 0-10.937-7.979-11.052-8.318zm8.052 12.318c.0065813-.8135445-.0840611-1.6249617-.27-2.417 2.1445502.5559878 4.3954498.5559878 6.54 0-.1859389.7920383-.2765813 1.6034555-.27 2.417 0 2.744 2.037 4.717 2.981 5.483-.2487908 3.1187797-2.8523128 5.5228847-5.981 5.5228847s-5.7322092-2.404105-5.981-5.5228847c.944-.766 2.981-2.739 2.981-5.483zm-17 16c-.00185887-2.6527343 1.05111259-5.1973536 2.92687948-7.0731205s4.42038622-2.9287384 7.07312052-2.9268795h2.069c.5010019 3.9989443 3.9007943 6.9993763 7.931 6.9993763s7.4299981-3.000432 7.931-6.9993763h2.069c1.7583109.0029081 3.4841232.4740549 5 1.365v6.635c.0036768 1.0854693.3641933 2.1396111 1.026 3h-35.026c-.55228475 0-1-.4477153-1-1zm55-2c0 1.6568542-1.3431458 3-3 3h-12c-1.6568542 0-3-1.3431458-3-3v-21c0-1.6568542 1.3431458-3 3-3h12c1.6568542 0 3 1.3431458 3 3z"/><path id="Shape" d="m55 33h-10c-1.1045695 0-2 .8954305-2 2v19c0 1.1045695.8954305 2 2 2h10c1.1045695 0 2-.8954305 2-2v-19c0-1.1045695-.8954305-2-2-2zm0 2v14h-10v-14zm-10 19v-3h10v3z"/><path id="Shape" d="m49.293 47.707c.3904999.3903819 1.0235001.3903819 1.414 0l2-2c.3789722-.3923789.3735524-1.0160848-.0121814-1.4018186s-1.0094397-.3911536-1.4018186-.0121814l-.293.293v-5.586c0-.5522847-.4477153-1-1-1s-1 .4477153-1 1v5.586l-.293-.293c-.3923789-.3789722-1.0160848-.3735524-1.4018186.0121814s-.3911536 1.0094397-.0121814 1.4018186z"/></g></g></g></svg>